<svg xmlns="http://www.w3.org/2000/svg" viewBox="0 0 640 460" width="640" height="460" role="img" aria-label="The silver box on the windowsill">
<title>The silver box on the windowsill</title>
<defs>
<filter id="box-rough" x="-5%" y="-5%" width="110%" height="110%"><feTurbulence type="fractalNoise" baseFrequency="0.045" numOctaves="2" seed="4"/><feDisplacementMap in="SourceGraphic" scale="1.1"/></filter>
<filter id="box-bleed" x="-10%" y="-10%" width="120%" height="120%"><feTurbulence type="fractalNoise" baseFrequency="0.02" numOctaves="3" seed="9"/><feDisplacementMap in="SourceGraphic" scale="9"/></filter>
<radialGradient id="box-glow"><stop offset="0" stop-color="#ffcf6a" stop-opacity="0.95"/><stop offset="0.35" stop-color="#e8862c" stop-opacity="0.55"/><stop offset="1" stop-color="#a3261b" stop-opacity="0"/></radialGradient>
<clipPath id="box-h1"><path d="M190,212 L214,96 L450,96 L430,212 Z"/></clipPath><clipPath id="box-h2"><path d="M180,250 H460 V350 H180 Z"/></clipPath><clipPath id="box-h3"><path d="M320,250 C300,228 270,232 272,214 C274,198 296,196 306,210 C312,198 334,196 338,212 C342,230 330,240 320,250 Z"/></clipPath>
</defs>
<g filter="url(#box-rough)"><path d="M190,212 L214,96 L450,96 L430,212 Z" fill="#f1e0b8" stroke="#33200f" stroke-width="1.8" stroke-linecap="round" stroke-linejoin="round"/><g clip-path="url(#box-h1)" opacity="0.45"><line x1="215.9" y1="-25.2" x2="499.2" y2="49.9" stroke="#33200f" stroke-width="0.6" stroke-linecap="round"/><line x1="215.1" y1="-21.8" x2="498.3" y2="53.5" stroke="#33200f" stroke-width="0.6" stroke-linecap="round"/><line x1="214.5" y1="-18.3" x2="497.4" y2="57.3" stroke="#33200f" stroke-width="0.6" stroke-linecap="round"/><line x1="213.9" y1="-14.8" x2="496.4" y2="61.2" stroke="#33200f" stroke-width="0.6" stroke-linecap="round"/><line x1="212.4" y1="-11.3" x2="495.5" y2="64.0" stroke="#33200f" stroke-width="0.6" stroke-linecap="round"/><line x1="211.4" y1="-7.9" x2="494.6" y2="67.4" stroke="#33200f" stroke-width="0.6" stroke-linecap="round"/><line x1="210.6" y1="-4.4" x2="493.7" y2="71.1" stroke="#33200f" stroke-width="0.6" stroke-linecap="round"/><line x1="210.3" y1="-0.9" x2="492.7" y2="75.2" stroke="#33200f" stroke-width="0.6" stroke-linecap="round"/><line x1="208.6" y1="2.6" x2="491.8" y2="77.9" stroke="#33200f" stroke-width="0.6" stroke-linecap="round"/><line x1="208.4" y1="6.1" x2="490.9" y2="82.1" stroke="#33200f" stroke-width="0.6" stroke-linecap="round"/><line x1="207.4" y1="9.5" x2="489.9" y2="85.5" stroke="#33200f" stroke-width="0.6" stroke-linecap="round"/><line x1="205.8" y1="13.0" x2="489.0" y2="88.3" stroke="#33200f" stroke-width="0.6" stroke-linecap="round"/><line x1="205.4" y1="16.5" x2="488.1" y2="92.3" stroke="#33200f" stroke-width="0.6" stroke-linecap="round"/><line x1="204.3" y1="20.0" x2="487.1" y2="95.7" stroke="#33200f" stroke-width="0.6" stroke-linecap="round"/><line x1="203.4" y1="23.4" x2="486.2" y2="99.1" stroke="#33200f" stroke-width="0.6" stroke-linecap="round"/><line x1="203.1" y1="26.9" x2="485.3" y2="103.3" stroke="#33200f" stroke-width="0.6" stroke-linecap="round"/><line x1="201.1" y1="30.4" x2="484.3" y2="105.7" stroke="#33200f" stroke-width="0.6" stroke-linecap="round"/><line x1="200.1" y1="33.9" x2="483.4" y2="109.1" stroke="#33200f" stroke-width="0.6" stroke-linecap="round"/><line x1="200.3" y1="37.3" x2="482.5" y2="113.6" stroke="#33200f" stroke-width="0.6" stroke-linecap="round"/><line x1="198.7" y1="40.8" x2="481.5" y2="116.5" stroke="#33200f" stroke-width="0.6" stroke-linecap="round"/><line x1="197.5" y1="44.3" x2="480.6" y2="119.7" stroke="#33200f" stroke-width="0.6" stroke-linecap="round"/><line x1="196.7" y1="47.8" x2="479.7" y2="123.3" stroke="#33200f" stroke-width="0.6" stroke-linecap="round"/><line x1="195.9" y1="51.3" x2="478.7" y2="126.9" stroke="#33200f" stroke-width="0.6" stroke-linecap="round"/><line x1="195.6" y1="54.7" x2="477.8" y2="131.0" stroke="#33200f" stroke-width="0.6" stroke-linecap="round"/><line x1="193.8" y1="58.2" x2="476.9" y2="133.6" stroke="#33200f" stroke-width="0.6" stroke-linecap="round"/><line x1="192.9" y1="61.7" x2="475.9" y2="137.1" stroke="#33200f" stroke-width="0.6" stroke-linecap="round"/><line x1="192.4" y1="65.2" x2="475.0" y2="141.0" stroke="#33200f" stroke-width="0.6" stroke-linecap="round"/><line x1="191.4" y1="68.6" x2="474.1" y2="144.5" stroke="#33200f" stroke-width="0.6" stroke-linecap="round"/><line x1="191.0" y1="72.1" x2="473.2" y2="148.4" stroke="#33200f" stroke-width="0.6" stroke-linecap="round"/><line x1="189.9" y1="75.6" x2="472.2" y2="151.8" stroke="#33200f" stroke-width="0.6" stroke-linecap="round"/><line x1="188.4" y1="79.1" x2="471.3" y2="154.7" stroke="#33200f" stroke-width="0.6" stroke-linecap="round"/><line x1="187.3" y1="82.6" x2="470.4" y2="158.0" stroke="#33200f" stroke-width="0.6" stroke-linecap="round"/><line x1="187.1" y1="86.0" x2="469.4" y2="162.2" stroke="#33200f" stroke-width="0.6" stroke-linecap="round"/><line x1="186.4" y1="89.5" x2="468.5" y2="165.9" stroke="#33200f" stroke-width="0.6" stroke-linecap="round"/><line x1="184.3" y1="93.0" x2="467.6" y2="168.2" stroke="#33200f" stroke-width="0.6" stroke-linecap="round"/><line x1="184.2" y1="96.5" x2="466.6" y2="172.5" stroke="#33200f" stroke-width="0.6" stroke-linecap="round"/><line x1="183.4" y1="99.9" x2="465.7" y2="176.1" stroke="#33200f" stroke-width="0.6" stroke-linecap="round"/><line x1="182.2" y1="103.4" x2="464.8" y2="179.4" stroke="#33200f" stroke-width="0.6" stroke-linecap="round"/><line x1="180.8" y1="106.9" x2="463.8" y2="182.3" stroke="#33200f" stroke-width="0.6" stroke-linecap="round"/><line x1="180.5" y1="110.4" x2="462.9" y2="186.5" stroke="#33200f" stroke-width="0.6" stroke-linecap="round"/><line x1="179.5" y1="113.8" x2="462.0" y2="189.9" stroke="#33200f" stroke-width="0.6" stroke-linecap="round"/><line x1="177.9" y1="117.3" x2="461.0" y2="192.7" stroke="#33200f" stroke-width="0.6" stroke-linecap="round"/><line x1="177.5" y1="120.8" x2="460.1" y2="196.7" stroke="#33200f" stroke-width="0.6" stroke-linecap="round"/><line x1="176.1" y1="124.3" x2="459.2" y2="199.7" stroke="#33200f" stroke-width="0.6" stroke-linecap="round"/><line x1="175.0" y1="127.8" x2="458.2" y2="203.0" stroke="#33200f" stroke-width="0.6" stroke-linecap="round"/><line x1="174.4" y1="131.2" x2="457.3" y2="206.8" stroke="#33200f" stroke-width="0.6" stroke-linecap="round"/><line x1="173.5" y1="134.7" x2="456.4" y2="210.3" stroke="#33200f" stroke-width="0.6" stroke-linecap="round"/><line x1="172.6" y1="138.2" x2="455.5" y2="213.8" stroke="#33200f" stroke-width="0.6" stroke-linecap="round"/><line x1="172.0" y1="141.7" x2="454.5" y2="217.6" stroke="#33200f" stroke-width="0.6" stroke-linecap="round"/><line x1="171.3" y1="145.1" x2="453.6" y2="221.3" stroke="#33200f" stroke-width="0.6" stroke-linecap="round"/><line x1="170.5" y1="148.6" x2="452.7" y2="224.9" stroke="#33200f" stroke-width="0.6" stroke-linecap="round"/><line x1="169.6" y1="152.1" x2="451.7" y2="228.4" stroke="#33200f" stroke-width="0.6" stroke-linecap="round"/><line x1="168.7" y1="155.6" x2="450.8" y2="231.9" stroke="#33200f" stroke-width="0.6" stroke-linecap="round"/><line x1="167.5" y1="159.1" x2="449.9" y2="235.2" stroke="#33200f" stroke-width="0.6" stroke-linecap="round"/><line x1="166.0" y1="162.5" x2="448.9" y2="238.1" stroke="#33200f" stroke-width="0.6" stroke-linecap="round"/><line x1="164.9" y1="166.0" x2="448.0" y2="241.4" stroke="#33200f" stroke-width="0.6" stroke-linecap="round"/><line x1="164.5" y1="169.5" x2="447.1" y2="245.4" stroke="#33200f" stroke-width="0.6" stroke-linecap="round"/><line x1="163.5" y1="173.0" x2="446.1" y2="248.8" stroke="#33200f" stroke-width="0.6" stroke-linecap="round"/><line x1="162.7" y1="176.4" x2="445.2" y2="252.4" stroke="#33200f" stroke-width="0.6" stroke-linecap="round"/><line x1="161.1" y1="179.9" x2="444.3" y2="255.2" stroke="#33200f" stroke-width="0.6" stroke-linecap="round"/><line x1="160.2" y1="183.4" x2="443.3" y2="258.8" stroke="#33200f" stroke-width="0.6" stroke-linecap="round"/><line x1="160.2" y1="186.9" x2="442.4" y2="263.1" stroke="#33200f" stroke-width="0.6" stroke-linecap="round"/><line x1="158.9" y1="190.4" x2="441.5" y2="266.2" stroke="#33200f" stroke-width="0.6" stroke-linecap="round"/><line x1="158.0" y1="193.8" x2="440.5" y2="269.8" stroke="#33200f" stroke-width="0.6" stroke-linecap="round"/><line x1="156.4" y1="197.3" x2="439.6" y2="272.6" stroke="#33200f" stroke-width="0.6" stroke-linecap="round"/><line x1="155.8" y1="200.8" x2="438.7" y2="276.4" stroke="#33200f" stroke-width="0.6" stroke-linecap="round"/><line x1="155.5" y1="204.3" x2="437.7" y2="280.5" stroke="#33200f" stroke-width="0.6" stroke-linecap="round"/><line x1="154.3" y1="207.7" x2="436.8" y2="283.7" stroke="#33200f" stroke-width="0.6" stroke-linecap="round"/><line x1="153.7" y1="211.2" x2="435.9" y2="287.6" stroke="#33200f" stroke-width="0.6" stroke-linecap="round"/><line x1="151.9" y1="214.7" x2="435.0" y2="290.1" stroke="#33200f" stroke-width="0.6" stroke-linecap="round"/><line x1="151.2" y1="218.2" x2="434.0" y2="293.9" stroke="#33200f" stroke-width="0.6" stroke-linecap="round"/><line x1="150.7" y1="221.6" x2="433.1" y2="297.8" stroke="#33200f" stroke-width="0.6" stroke-linecap="round"/><line x1="149.4" y1="225.1" x2="432.2" y2="300.8" stroke="#33200f" stroke-width="0.6" stroke-linecap="round"/><line x1="148.8" y1="228.6" x2="431.2" y2="304.7" stroke="#33200f" stroke-width="0.6" stroke-linecap="round"/><line x1="147.6" y1="232.1" x2="430.3" y2="307.9" stroke="#33200f" stroke-width="0.6" stroke-linecap="round"/><line x1="146.2" y1="235.6" x2="429.4" y2="310.9" stroke="#33200f" stroke-width="0.6" stroke-linecap="round"/><line x1="145.2" y1="239.0" x2="428.4" y2="314.3" stroke="#33200f" stroke-width="0.6" stroke-linecap="round"/><line x1="145.3" y1="242.5" x2="427.5" y2="318.8" stroke="#33200f" stroke-width="0.6" stroke-linecap="round"/><line x1="143.4" y1="246.0" x2="426.6" y2="321.3" stroke="#33200f" stroke-width="0.6" stroke-linecap="round"/><line x1="142.5" y1="249.5" x2="425.6" y2="324.9" stroke="#33200f" stroke-width="0.6" stroke-linecap="round"/><line x1="141.8" y1="252.9" x2="424.7" y2="328.5" stroke="#33200f" stroke-width="0.6" stroke-linecap="round"/><line x1="141.3" y1="256.4" x2="423.8" y2="332.4" stroke="#33200f" stroke-width="0.6" stroke-linecap="round"/></g><path d="M232,112 H434 L418,196 H210 Z" fill="none" stroke="#33200f" stroke-width="1.0" stroke-linecap="round" stroke-linejoin="round"/><path d="M250,150 q10,-14 20,0 q-10,14 -20,0" fill="none" stroke="#33200f" stroke-width="0.9" stroke-linecap="round" stroke-linejoin="round"/><path d="M280,150 q10,-14 20,0 q-10,14 -20,0" fill="none" stroke="#33200f" stroke-width="0.9" stroke-linecap="round" stroke-linejoin="round"/><path d="M310,150 q10,-14 20,0 q-10,14 -20,0" fill="none" stroke="#33200f" stroke-width="0.9" stroke-linecap="round" stroke-linejoin="round"/><path d="M340,150 q10,-14 20,0 q-10,14 -20,0" fill="none" stroke="#33200f" stroke-width="0.9" stroke-linecap="round" stroke-linejoin="round"/><path d="M370,150 q10,-14 20,0 q-10,14 -20,0" fill="none" stroke="#33200f" stroke-width="0.9" stroke-linecap="round" stroke-linejoin="round"/><path d="M400,150 q10,-14 20,0 q-10,14 -20,0" fill="none" stroke="#33200f" stroke-width="0.9" stroke-linecap="round" stroke-linejoin="round"/><path d="M180,250 L210,212 H430 L460,250 Z" fill="#f1e0b8" stroke="#33200f" stroke-width="1.6" stroke-linecap="round" stroke-linejoin="round"/><path d="M200,246 L222,220 H420 L440,246 Z" fill="#33200f" stroke="#33200f" stroke-width="1.0" stroke-linecap="round" stroke-linejoin="round"/><path d="M180,250 H460 V350 H180 Z" fill="#f1e0b8" stroke="#33200f" stroke-width="1.8" stroke-linecap="round" stroke-linejoin="round"/><g clip-path="url(#box-h2)" opacity="0.55"><line x1="444.3" y1="123.1" x2="496.9" y2="424.3" stroke="#33200f" stroke-width="0.6" stroke-linecap="round"/><line x1="440.8" y1="123.7" x2="493.9" y2="424.3" stroke="#33200f" stroke-width="0.6" stroke-linecap="round"/><line x1="437.9" y1="124.2" x2="490.9" y2="424.9" stroke="#33200f" stroke-width="0.6" stroke-linecap="round"/><line x1="435.3" y1="124.7" x2="488.0" y2="425.7" stroke="#33200f" stroke-width="0.6" stroke-linecap="round"/><line x1="431.7" y1="125.2" x2="485.0" y2="425.6" stroke="#33200f" stroke-width="0.6" stroke-linecap="round"/><line x1="428.9" y1="125.8" x2="482.1" y2="426.3" stroke="#33200f" stroke-width="0.6" stroke-linecap="round"/><line x1="426.2" y1="126.3" x2="479.1" y2="427.1" stroke="#33200f" stroke-width="0.6" stroke-linecap="round"/><line x1="423.3" y1="126.8" x2="476.2" y2="427.6" stroke="#33200f" stroke-width="0.6" stroke-linecap="round"/><line x1="419.6" y1="127.3" x2="473.2" y2="427.4" stroke="#33200f" stroke-width="0.6" stroke-linecap="round"/><line x1="416.8" y1="127.8" x2="470.3" y2="428.1" stroke="#33200f" stroke-width="0.6" stroke-linecap="round"/><line x1="413.9" y1="128.4" x2="467.3" y2="428.6" stroke="#33200f" stroke-width="0.6" stroke-linecap="round"/><line x1="411.6" y1="128.9" x2="464.4" y2="429.8" stroke="#33200f" stroke-width="0.6" stroke-linecap="round"/><line x1="408.6" y1="129.4" x2="461.4" y2="430.3" stroke="#33200f" stroke-width="0.6" stroke-linecap="round"/><line x1="406.0" y1="129.9" x2="458.4" y2="431.2" stroke="#33200f" stroke-width="0.6" stroke-linecap="round"/><line x1="402.8" y1="130.4" x2="455.5" y2="431.4" stroke="#33200f" stroke-width="0.6" stroke-linecap="round"/><line x1="399.2" y1="131.0" x2="452.5" y2="431.4" stroke="#33200f" stroke-width="0.6" stroke-linecap="round"/><line x1="396.9" y1="131.5" x2="449.6" y2="432.5" stroke="#33200f" stroke-width="0.6" stroke-linecap="round"/><line x1="394.2" y1="132.0" x2="446.6" y2="433.3" stroke="#33200f" stroke-width="0.6" stroke-linecap="round"/><line x1="390.5" y1="132.5" x2="443.7" y2="433.0" stroke="#33200f" stroke-width="0.6" stroke-linecap="round"/><line x1="387.1" y1="133.0" x2="440.7" y2="433.1" stroke="#33200f" stroke-width="0.6" stroke-linecap="round"/><line x1="384.6" y1="133.6" x2="437.8" y2="434.1" stroke="#33200f" stroke-width="0.6" stroke-linecap="round"/><line x1="381.5" y1="134.1" x2="434.8" y2="434.5" stroke="#33200f" stroke-width="0.6" stroke-linecap="round"/><line x1="378.4" y1="134.6" x2="431.9" y2="434.9" stroke="#33200f" stroke-width="0.6" stroke-linecap="round"/><line x1="375.3" y1="135.1" x2="428.9" y2="435.3" stroke="#33200f" stroke-width="0.6" stroke-linecap="round"/><line x1="372.5" y1="135.7" x2="425.9" y2="435.9" stroke="#33200f" stroke-width="0.6" stroke-linecap="round"/><line x1="370.4" y1="136.2" x2="423.0" y2="437.3" stroke="#33200f" stroke-width="0.6" stroke-linecap="round"/><line x1="366.5" y1="136.7" x2="420.0" y2="436.8" stroke="#33200f" stroke-width="0.6" stroke-linecap="round"/><line x1="364.2" y1="137.2" x2="417.1" y2="438.0" stroke="#33200f" stroke-width="0.6" stroke-linecap="round"/><line x1="360.8" y1="137.7" x2="414.1" y2="438.1" stroke="#33200f" stroke-width="0.6" stroke-linecap="round"/><line x1="357.8" y1="138.3" x2="411.2" y2="438.6" stroke="#33200f" stroke-width="0.6" stroke-linecap="round"/><line x1="355.6" y1="138.8" x2="408.2" y2="439.8" stroke="#33200f" stroke-width="0.6" stroke-linecap="round"/><line x1="352.0" y1="139.3" x2="405.3" y2="439.7" stroke="#33200f" stroke-width="0.6" stroke-linecap="round"/><line x1="348.9" y1="139.8" x2="402.3" y2="440.1" stroke="#33200f" stroke-width="0.6" stroke-linecap="round"/><line x1="346.3" y1="140.3" x2="399.4" y2="441.0" stroke="#33200f" stroke-width="0.6" stroke-linecap="round"/><line x1="343.6" y1="140.9" x2="396.4" y2="441.8" stroke="#33200f" stroke-width="0.6" stroke-linecap="round"/><line x1="340.5" y1="141.4" x2="393.4" y2="442.1" stroke="#33200f" stroke-width="0.6" stroke-linecap="round"/><line x1="337.9" y1="141.9" x2="390.5" y2="443.0" stroke="#33200f" stroke-width="0.6" stroke-linecap="round"/><line x1="334.4" y1="142.4" x2="387.5" y2="443.0" stroke="#33200f" stroke-width="0.6" stroke-linecap="round"/><line x1="331.6" y1="142.9" x2="384.6" y2="443.7" stroke="#33200f" stroke-width="0.6" stroke-linecap="round"/><line x1="328.9" y1="143.5" x2="381.6" y2="444.4" stroke="#33200f" stroke-width="0.6" stroke-linecap="round"/><line x1="325.6" y1="144.0" x2="378.7" y2="444.6" stroke="#33200f" stroke-width="0.6" stroke-linecap="round"/><line x1="323.0" y1="144.5" x2="375.7" y2="445.5" stroke="#33200f" stroke-width="0.6" stroke-linecap="round"/><line x1="319.7" y1="145.0" x2="372.8" y2="445.7" stroke="#33200f" stroke-width="0.6" stroke-linecap="round"/><line x1="316.4" y1="145.5" x2="369.8" y2="445.8" stroke="#33200f" stroke-width="0.6" stroke-linecap="round"/><line x1="313.4" y1="146.1" x2="366.9" y2="446.3" stroke="#33200f" stroke-width="0.6" stroke-linecap="round"/><line x1="311.2" y1="146.6" x2="363.9" y2="447.6" stroke="#33200f" stroke-width="0.6" stroke-linecap="round"/><line x1="308.2" y1="147.1" x2="360.9" y2="448.1" stroke="#33200f" stroke-width="0.6" stroke-linecap="round"/><line x1="305.5" y1="147.6" x2="358.0" y2="448.8" stroke="#33200f" stroke-width="0.6" stroke-linecap="round"/><line x1="302.2" y1="148.2" x2="355.0" y2="449.1" stroke="#33200f" stroke-width="0.6" stroke-linecap="round"/><line x1="299.2" y1="148.7" x2="352.1" y2="449.5" stroke="#33200f" stroke-width="0.6" stroke-linecap="round"/><line x1="295.7" y1="149.2" x2="349.1" y2="449.5" stroke="#33200f" stroke-width="0.6" stroke-linecap="round"/><line x1="293.6" y1="149.7" x2="346.2" y2="450.8" stroke="#33200f" stroke-width="0.6" stroke-linecap="round"/><line x1="289.7" y1="150.2" x2="343.2" y2="450.5" stroke="#33200f" stroke-width="0.6" stroke-linecap="round"/><line x1="287.2" y1="150.8" x2="340.3" y2="451.4" stroke="#33200f" stroke-width="0.6" stroke-linecap="round"/><line x1="283.9" y1="151.3" x2="337.3" y2="451.5" stroke="#33200f" stroke-width="0.6" stroke-linecap="round"/><line x1="281.2" y1="151.8" x2="334.4" y2="452.3" stroke="#33200f" stroke-width="0.6" stroke-linecap="round"/><line x1="278.2" y1="152.3" x2="331.4" y2="452.8" stroke="#33200f" stroke-width="0.6" stroke-linecap="round"/><line x1="275.3" y1="152.8" x2="328.4" y2="453.4" stroke="#33200f" stroke-width="0.6" stroke-linecap="round"/><line x1="272.7" y1="153.4" x2="325.5" y2="454.3" stroke="#33200f" stroke-width="0.6" stroke-linecap="round"/><line x1="269.6" y1="153.9" x2="322.5" y2="454.6" stroke="#33200f" stroke-width="0.6" stroke-linecap="round"/><line x1="266.3" y1="154.4" x2="319.6" y2="454.8" stroke="#33200f" stroke-width="0.6" stroke-linecap="round"/><line x1="263.9" y1="154.9" x2="316.6" y2="455.9" stroke="#33200f" stroke-width="0.6" stroke-linecap="round"/><line x1="260.9" y1="155.4" x2="313.7" y2="456.4" stroke="#33200f" stroke-width="0.6" stroke-linecap="round"/><line x1="258.1" y1="156.0" x2="310.7" y2="457.0" stroke="#33200f" stroke-width="0.6" stroke-linecap="round"/><line x1="254.2" y1="156.5" x2="307.8" y2="456.6" stroke="#33200f" stroke-width="0.6" stroke-linecap="round"/><line x1="251.9" y1="157.0" x2="304.8" y2="457.8" stroke="#33200f" stroke-width="0.6" stroke-linecap="round"/><line x1="249.3" y1="157.5" x2="301.9" y2="458.7" stroke="#33200f" stroke-width="0.6" stroke-linecap="round"/><line x1="245.6" y1="158.1" x2="298.9" y2="458.4" stroke="#33200f" stroke-width="0.6" stroke-linecap="round"/><line x1="242.6" y1="158.6" x2="295.9" y2="458.9" stroke="#33200f" stroke-width="0.6" stroke-linecap="round"/><line x1="240.4" y1="159.1" x2="293.0" y2="460.2" stroke="#33200f" stroke-width="0.6" stroke-linecap="round"/><line x1="236.9" y1="159.6" x2="290.0" y2="460.1" stroke="#33200f" stroke-width="0.6" stroke-linecap="round"/><line x1="233.9" y1="160.1" x2="287.1" y2="460.7" stroke="#33200f" stroke-width="0.6" stroke-linecap="round"/><line x1="231.5" y1="160.7" x2="284.1" y2="461.7" stroke="#33200f" stroke-width="0.6" stroke-linecap="round"/><line x1="228.0" y1="161.2" x2="281.2" y2="461.7" stroke="#33200f" stroke-width="0.6" stroke-linecap="round"/><line x1="224.8" y1="161.7" x2="278.2" y2="462.0" stroke="#33200f" stroke-width="0.6" stroke-linecap="round"/><line x1="221.9" y1="162.2" x2="275.3" y2="462.6" stroke="#33200f" stroke-width="0.6" stroke-linecap="round"/><line x1="219.1" y1="162.7" x2="272.3" y2="463.2" stroke="#33200f" stroke-width="0.6" stroke-linecap="round"/><line x1="216.6" y1="163.3" x2="269.4" y2="464.2" stroke="#33200f" stroke-width="0.6" stroke-linecap="round"/><line x1="213.2" y1="163.8" x2="266.4" y2="464.3" stroke="#33200f" stroke-width="0.6" stroke-linecap="round"/><line x1="210.8" y1="164.3" x2="263.5" y2="465.3" stroke="#33200f" stroke-width="0.6" stroke-linecap="round"/><line x1="207.0" y1="164.8" x2="260.5" y2="465.0" stroke="#33200f" stroke-width="0.6" stroke-linecap="round"/><line x1="204.2" y1="165.3" x2="257.5" y2="465.7" stroke="#33200f" stroke-width="0.6" stroke-linecap="round"/><line x1="201.7" y1="165.9" x2="254.6" y2="466.7" stroke="#33200f" stroke-width="0.6" stroke-linecap="round"/><line x1="198.6" y1="166.4" x2="251.6" y2="467.0" stroke="#33200f" stroke-width="0.6" stroke-linecap="round"/><line x1="195.7" y1="166.9" x2="248.7" y2="467.6" stroke="#33200f" stroke-width="0.6" stroke-linecap="round"/><line x1="193.2" y1="167.4" x2="245.7" y2="468.6" stroke="#33200f" stroke-width="0.6" stroke-linecap="round"/><line x1="189.5" y1="168.0" x2="242.8" y2="468.4" stroke="#33200f" stroke-width="0.6" stroke-linecap="round"/><line x1="186.4" y1="168.5" x2="239.8" y2="468.8" stroke="#33200f" stroke-width="0.6" stroke-linecap="round"/><line x1="183.3" y1="169.0" x2="236.9" y2="469.1" stroke="#33200f" stroke-width="0.6" stroke-linecap="round"/><line x1="180.9" y1="169.5" x2="233.9" y2="470.2" stroke="#33200f" stroke-width="0.6" stroke-linecap="round"/><line x1="177.7" y1="170.0" x2="231.0" y2="470.5" stroke="#33200f" stroke-width="0.6" stroke-linecap="round"/><line x1="174.9" y1="170.6" x2="228.0" y2="471.2" stroke="#33200f" stroke-width="0.6" stroke-linecap="round"/><line x1="171.4" y1="171.1" x2="225.0" y2="471.2" stroke="#33200f" stroke-width="0.6" stroke-linecap="round"/><line x1="168.5" y1="171.6" x2="222.1" y2="471.7" stroke="#33200f" stroke-width="0.6" stroke-linecap="round"/><line x1="166.0" y1="172.1" x2="219.1" y2="472.7" stroke="#33200f" stroke-width="0.6" stroke-linecap="round"/><line x1="163.5" y1="172.6" x2="216.2" y2="473.6" stroke="#33200f" stroke-width="0.6" stroke-linecap="round"/><line x1="160.0" y1="173.2" x2="213.2" y2="473.6" stroke="#33200f" stroke-width="0.6" stroke-linecap="round"/><line x1="157.7" y1="173.7" x2="210.3" y2="474.9" stroke="#33200f" stroke-width="0.6" stroke-linecap="round"/><line x1="154.4" y1="174.2" x2="207.3" y2="475.0" stroke="#33200f" stroke-width="0.6" stroke-linecap="round"/><line x1="151.2" y1="174.7" x2="204.4" y2="475.3" stroke="#33200f" stroke-width="0.6" stroke-linecap="round"/><line x1="148.7" y1="175.2" x2="201.4" y2="476.3" stroke="#33200f" stroke-width="0.6" stroke-linecap="round"/><line x1="145.1" y1="175.8" x2="198.5" y2="476.1" stroke="#33200f" stroke-width="0.6" stroke-linecap="round"/></g><path d="M196,300 q12,-22 24,0 q-12,22 -24,0" fill="#f1e0b8" stroke="#33200f" stroke-width="1.1" stroke-linecap="round" stroke-linejoin="round"/><path d="M258,300 q12,-22 24,0 q-12,22 -24,0" fill="#f1e0b8" stroke="#33200f" stroke-width="1.1" stroke-linecap="round" stroke-linejoin="round"/><path d="M320,300 q12,-22 24,0 q-12,22 -24,0" fill="#f1e0b8" stroke="#33200f" stroke-width="1.1" stroke-linecap="round" stroke-linejoin="round"/><path d="M382,300 q12,-22 24,0 q-12,22 -24,0" fill="#f1e0b8" stroke="#33200f" stroke-width="1.1" stroke-linecap="round" stroke-linejoin="round"/><path d="M444,300 q12,-22 24,0 q-12,22 -24,0" fill="#f1e0b8" stroke="#33200f" stroke-width="1.1" stroke-linecap="round" stroke-linejoin="round"/><path d="M180,350 L172,366 H468 L460,350" fill="none" stroke="#33200f" stroke-width="1.6" stroke-linecap="round" stroke-linejoin="round"/><circle cx="186" cy="372" r="7" fill="#f1e0b8" stroke="#33200f" stroke-width="1.4"/><circle cx="454" cy="372" r="7" fill="#f1e0b8" stroke="#33200f" stroke-width="1.4"/><path d="M320,250 C300,228 270,232 272,214 C274,198 296,196 306,210 C312,198 334,196 338,212 C342,230 330,240 320,250 Z" fill="#f1e0b8" stroke="#33200f" stroke-width="1.4" stroke-linecap="round" stroke-linejoin="round"/><g clip-path="url(#box-h3)" opacity="0.85"><line x1="307.1" y1="154.8" x2="375.2" y2="223.1" stroke="#33200f" stroke-width="0.6" stroke-linecap="round"/><line x1="305.9" y1="156.4" x2="373.6" y2="225.0" stroke="#33200f" stroke-width="0.6" stroke-linecap="round"/><line x1="303.9" y1="157.9" x2="372.1" y2="226.2" stroke="#33200f" stroke-width="0.6" stroke-linecap="round"/><line x1="302.1" y1="159.5" x2="370.5" y2="227.5" stroke="#33200f" stroke-width="0.6" stroke-linecap="round"/><line x1="300.3" y1="161.1" x2="368.9" y2="228.7" stroke="#33200f" stroke-width="0.6" stroke-linecap="round"/><line x1="299.3" y1="162.6" x2="367.4" y2="230.9" stroke="#33200f" stroke-width="0.6" stroke-linecap="round"/><line x1="297.3" y1="164.2" x2="365.8" y2="232.0" stroke="#33200f" stroke-width="0.6" stroke-linecap="round"/><line x1="296.0" y1="165.7" x2="364.3" y2="233.7" stroke="#33200f" stroke-width="0.6" stroke-linecap="round"/><line x1="294.6" y1="167.3" x2="362.7" y2="235.5" stroke="#33200f" stroke-width="0.6" stroke-linecap="round"/><line x1="293.5" y1="168.8" x2="361.2" y2="237.5" stroke="#33200f" stroke-width="0.6" stroke-linecap="round"/><line x1="291.7" y1="170.4" x2="359.6" y2="238.8" stroke="#33200f" stroke-width="0.6" stroke-linecap="round"/><line x1="289.9" y1="171.9" x2="358.1" y2="240.1" stroke="#33200f" stroke-width="0.6" stroke-linecap="round"/><line x1="288.8" y1="173.5" x2="356.5" y2="242.1" stroke="#33200f" stroke-width="0.6" stroke-linecap="round"/><line x1="286.5" y1="175.1" x2="354.9" y2="243.0" stroke="#33200f" stroke-width="0.6" stroke-linecap="round"/><line x1="285.1" y1="176.6" x2="353.4" y2="244.6" stroke="#33200f" stroke-width="0.6" stroke-linecap="round"/><line x1="283.9" y1="178.2" x2="351.8" y2="246.5" stroke="#33200f" stroke-width="0.6" stroke-linecap="round"/><line x1="282.2" y1="179.7" x2="350.3" y2="248.0" stroke="#33200f" stroke-width="0.6" stroke-linecap="round"/><line x1="280.2" y1="181.3" x2="348.7" y2="249.1" stroke="#33200f" stroke-width="0.6" stroke-linecap="round"/><line x1="278.9" y1="182.8" x2="347.2" y2="250.9" stroke="#33200f" stroke-width="0.6" stroke-linecap="round"/><line x1="277.8" y1="184.4" x2="345.6" y2="252.9" stroke="#33200f" stroke-width="0.6" stroke-linecap="round"/><line x1="275.6" y1="185.9" x2="344.1" y2="253.8" stroke="#33200f" stroke-width="0.6" stroke-linecap="round"/><line x1="274.6" y1="187.5" x2="342.5" y2="255.9" stroke="#33200f" stroke-width="0.6" stroke-linecap="round"/><line x1="272.2" y1="189.1" x2="340.9" y2="256.7" stroke="#33200f" stroke-width="0.6" stroke-linecap="round"/><line x1="271.8" y1="190.6" x2="339.4" y2="259.3" stroke="#33200f" stroke-width="0.6" stroke-linecap="round"/><line x1="269.9" y1="192.2" x2="337.8" y2="260.6" stroke="#33200f" stroke-width="0.6" stroke-linecap="round"/><line x1="267.9" y1="193.7" x2="336.3" y2="261.7" stroke="#33200f" stroke-width="0.6" stroke-linecap="round"/><line x1="267.1" y1="195.3" x2="334.7" y2="264.0" stroke="#33200f" stroke-width="0.6" stroke-linecap="round"/><line x1="265.4" y1="196.8" x2="333.2" y2="265.4" stroke="#33200f" stroke-width="0.6" stroke-linecap="round"/><line x1="262.9" y1="198.4" x2="331.6" y2="266.0" stroke="#33200f" stroke-width="0.6" stroke-linecap="round"/><line x1="261.6" y1="199.9" x2="330.1" y2="267.8" stroke="#33200f" stroke-width="0.6" stroke-linecap="round"/><line x1="260.3" y1="201.5" x2="328.5" y2="269.7" stroke="#33200f" stroke-width="0.6" stroke-linecap="round"/><line x1="259.4" y1="203.1" x2="326.9" y2="271.8" stroke="#33200f" stroke-width="0.6" stroke-linecap="round"/><line x1="256.8" y1="204.6" x2="325.4" y2="272.3" stroke="#33200f" stroke-width="0.6" stroke-linecap="round"/><line x1="255.1" y1="206.2" x2="323.8" y2="273.8" stroke="#33200f" stroke-width="0.6" stroke-linecap="round"/><line x1="253.9" y1="207.7" x2="322.3" y2="275.7" stroke="#33200f" stroke-width="0.6" stroke-linecap="round"/><line x1="252.0" y1="209.3" x2="320.7" y2="276.9" stroke="#33200f" stroke-width="0.6" stroke-linecap="round"/><line x1="250.9" y1="210.8" x2="319.2" y2="278.9" stroke="#33200f" stroke-width="0.6" stroke-linecap="round"/><line x1="249.5" y1="212.4" x2="317.6" y2="280.6" stroke="#33200f" stroke-width="0.6" stroke-linecap="round"/><line x1="247.8" y1="213.9" x2="316.1" y2="282.0" stroke="#33200f" stroke-width="0.6" stroke-linecap="round"/><line x1="245.9" y1="215.5" x2="314.5" y2="283.2" stroke="#33200f" stroke-width="0.6" stroke-linecap="round"/><line x1="244.2" y1="217.1" x2="312.9" y2="284.7" stroke="#33200f" stroke-width="0.6" stroke-linecap="round"/><line x1="243.6" y1="218.6" x2="311.4" y2="287.1" stroke="#33200f" stroke-width="0.6" stroke-linecap="round"/><line x1="241.6" y1="220.2" x2="309.8" y2="288.3" stroke="#33200f" stroke-width="0.6" stroke-linecap="round"/><line x1="240.1" y1="221.7" x2="308.3" y2="289.9" stroke="#33200f" stroke-width="0.6" stroke-linecap="round"/><line x1="375.1" y1="223.0" x2="307.0" y2="291.1" stroke="#33200f" stroke-width="0.6" stroke-linecap="round"/><line x1="373.8" y1="221.4" x2="305.4" y2="289.8" stroke="#33200f" stroke-width="0.6" stroke-linecap="round"/><line x1="372.5" y1="219.9" x2="303.9" y2="288.5" stroke="#33200f" stroke-width="0.6" stroke-linecap="round"/><line x1="370.9" y1="218.3" x2="302.3" y2="286.9" stroke="#33200f" stroke-width="0.6" stroke-linecap="round"/><line x1="369.2" y1="216.8" x2="300.8" y2="285.2" stroke="#33200f" stroke-width="0.6" stroke-linecap="round"/><line x1="367.2" y1="215.2" x2="299.2" y2="283.2" stroke="#33200f" stroke-width="0.6" stroke-linecap="round"/><line x1="365.4" y1="213.7" x2="297.7" y2="281.4" stroke="#33200f" stroke-width="0.6" stroke-linecap="round"/><line x1="363.8" y1="212.1" x2="296.1" y2="279.8" stroke="#33200f" stroke-width="0.6" stroke-linecap="round"/><line x1="363.2" y1="210.6" x2="294.6" y2="279.2" stroke="#33200f" stroke-width="0.6" stroke-linecap="round"/><line x1="360.6" y1="209.0" x2="293.0" y2="276.6" stroke="#33200f" stroke-width="0.6" stroke-linecap="round"/><line x1="359.7" y1="207.4" x2="291.4" y2="275.7" stroke="#33200f" stroke-width="0.6" stroke-linecap="round"/><line x1="358.6" y1="205.9" x2="289.9" y2="274.6" stroke="#33200f" stroke-width="0.6" stroke-linecap="round"/><line x1="356.3" y1="204.3" x2="288.3" y2="272.3" stroke="#33200f" stroke-width="0.6" stroke-linecap="round"/><line x1="354.8" y1="202.8" x2="286.8" y2="270.8" stroke="#33200f" stroke-width="0.6" stroke-linecap="round"/><line x1="353.3" y1="201.2" x2="285.2" y2="269.3" stroke="#33200f" stroke-width="0.6" stroke-linecap="round"/><line x1="352.4" y1="199.7" x2="283.7" y2="268.4" stroke="#33200f" stroke-width="0.6" stroke-linecap="round"/><line x1="350.5" y1="198.1" x2="282.1" y2="266.5" stroke="#33200f" stroke-width="0.6" stroke-linecap="round"/><line x1="349.1" y1="196.6" x2="280.6" y2="265.1" stroke="#33200f" stroke-width="0.6" stroke-linecap="round"/><line x1="346.6" y1="195.0" x2="279.0" y2="262.6" stroke="#33200f" stroke-width="0.6" stroke-linecap="round"/><line x1="345.9" y1="193.4" x2="277.4" y2="261.9" stroke="#33200f" stroke-width="0.6" stroke-linecap="round"/><line x1="344.0" y1="191.9" x2="275.9" y2="260.0" stroke="#33200f" stroke-width="0.6" stroke-linecap="round"/><line x1="342.4" y1="190.3" x2="274.3" y2="258.4" stroke="#33200f" stroke-width="0.6" stroke-linecap="round"/><line x1="341.3" y1="188.8" x2="272.8" y2="257.3" stroke="#33200f" stroke-width="0.6" stroke-linecap="round"/><line x1="339.7" y1="187.2" x2="271.2" y2="255.7" stroke="#33200f" stroke-width="0.6" stroke-linecap="round"/><line x1="338.3" y1="185.7" x2="269.7" y2="254.3" stroke="#33200f" stroke-width="0.6" stroke-linecap="round"/><line x1="336.6" y1="184.1" x2="268.1" y2="252.6" stroke="#33200f" stroke-width="0.6" stroke-linecap="round"/><line x1="335.2" y1="182.6" x2="266.6" y2="251.2" stroke="#33200f" stroke-width="0.6" stroke-linecap="round"/><line x1="333.1" y1="181.0" x2="265.0" y2="249.1" stroke="#33200f" stroke-width="0.6" stroke-linecap="round"/><line x1="331.7" y1="179.4" x2="263.4" y2="247.7" stroke="#33200f" stroke-width="0.6" stroke-linecap="round"/><line x1="330.4" y1="177.9" x2="261.9" y2="246.4" stroke="#33200f" stroke-width="0.6" stroke-linecap="round"/><line x1="328.4" y1="176.3" x2="260.3" y2="244.4" stroke="#33200f" stroke-width="0.6" stroke-linecap="round"/><line x1="326.5" y1="174.8" x2="258.8" y2="242.5" stroke="#33200f" stroke-width="0.6" stroke-linecap="round"/><line x1="325.5" y1="173.2" x2="257.2" y2="241.5" stroke="#33200f" stroke-width="0.6" stroke-linecap="round"/><line x1="324.3" y1="171.7" x2="255.7" y2="240.3" stroke="#33200f" stroke-width="0.6" stroke-linecap="round"/><line x1="322.7" y1="170.1" x2="254.1" y2="238.7" stroke="#33200f" stroke-width="0.6" stroke-linecap="round"/><line x1="320.3" y1="168.6" x2="252.6" y2="236.3" stroke="#33200f" stroke-width="0.6" stroke-linecap="round"/><line x1="319.0" y1="167.0" x2="251.0" y2="235.0" stroke="#33200f" stroke-width="0.6" stroke-linecap="round"/><line x1="317.3" y1="165.4" x2="249.4" y2="233.3" stroke="#33200f" stroke-width="0.6" stroke-linecap="round"/><line x1="315.9" y1="163.9" x2="247.9" y2="231.9" stroke="#33200f" stroke-width="0.6" stroke-linecap="round"/><line x1="315.1" y1="162.3" x2="246.3" y2="231.1" stroke="#33200f" stroke-width="0.6" stroke-linecap="round"/><line x1="312.9" y1="160.8" x2="244.8" y2="228.9" stroke="#33200f" stroke-width="0.6" stroke-linecap="round"/><line x1="311.2" y1="159.2" x2="243.2" y2="227.2" stroke="#33200f" stroke-width="0.6" stroke-linecap="round"/><line x1="309.6" y1="157.7" x2="241.7" y2="225.6" stroke="#33200f" stroke-width="0.6" stroke-linecap="round"/><line x1="308.2" y1="156.1" x2="240.1" y2="224.2" stroke="#33200f" stroke-width="0.6" stroke-linecap="round"/></g><path d="M318,206 q4,-10 12,-12 M306,210 q-2,-10 -10,-12" fill="none" stroke="#33200f" stroke-width="1.2" stroke-linecap="round" stroke-linejoin="round"/><path d="M380,250 C400,262 404,290 396,320 C390,336 376,344 370,360 C362,340 372,320 368,296 C364,274 372,258 380,250 Z" fill="#33200f" stroke="#33200f" stroke-width="1.2" stroke-linecap="round" stroke-linejoin="round"/><circle cx="376" cy="268" r="2" fill="#f1e0b8"/><circle cx="384" cy="282" r="2" fill="#f1e0b8"/><circle cx="376" cy="296" r="2" fill="#f1e0b8"/><circle cx="384" cy="310" r="2" fill="#f1e0b8"/><circle cx="376" cy="324" r="2" fill="#f1e0b8"/><circle cx="384" cy="338" r="2" fill="#f1e0b8"/><path d="M14,14 H626 V446 H14 Z" fill="none" stroke="#33200f" stroke-width="2.2" stroke-linecap="round" stroke-linejoin="round"/><path d="M20,20 H620 V440 H20 Z" fill="none" stroke="#33200f" stroke-width="0.9" stroke-linecap="round" stroke-linejoin="round"/></g>
<text x="320.0" y="420.0" font-family="Georgia, 'Times New Roman', serif" font-size="18" font-style="italic" font-weight="normal" text-anchor="middle" fill="#33200f" paint-order="stroke" stroke="#f1e0b8" stroke-width="4" stroke-linejoin="round">“My heart belongs to my queen.”</text>
</svg>
