<svg xmlns="http://www.w3.org/2000/svg" viewBox="0 0 820 480" width="820" height="480" role="img" aria-label="The hollow oak on the shore of Lake Ellory">
<title>The hollow oak on the shore of Lake Ellory</title>
<defs>
<filter id="oak-rough" x="-5%" y="-5%" width="110%" height="110%"><feTurbulence type="fractalNoise" baseFrequency="0.045" numOctaves="2" seed="4"/><feDisplacementMap in="SourceGraphic" scale="1.4"/></filter>
<filter id="oak-bleed" x="-10%" y="-10%" width="120%" height="120%"><feTurbulence type="fractalNoise" baseFrequency="0.02" numOctaves="3" seed="9"/><feDisplacementMap in="SourceGraphic" scale="9"/></filter>
<radialGradient id="oak-glow"><stop offset="0" stop-color="#ffcf6a" stop-opacity="0.95"/><stop offset="0.35" stop-color="#e8862c" stop-opacity="0.55"/><stop offset="1" stop-color="#a3261b" stop-opacity="0"/></radialGradient>
<clipPath id="oak-h1"><path d="M168,400 C188,340 180,270 190,210 C194,180 204,166 214,160 L256,160 C266,168 274,182 278,212 C286,270 276,340 296,400 Z"/></clipPath>
</defs>
<g filter="url(#oak-rough)"><path d="M20.6,251.1 C26.7,250.5 46.2,249.6 57.6,247.6 C69.0,245.6 78.2,241.5 89.1,239.4 C100.1,237.3 111.3,236.5 123.4,234.9 C135.4,233.3 149.4,230.0 161.4,229.8 C173.4,229.5 184.0,232.0 195.2,233.3 C206.4,234.6 216.8,236.2 228.8,237.6 C240.7,239.0 255.6,240.8 267.0,241.7 C278.4,242.5 286.9,242.5 297.1,242.7 C307.2,242.8 317.1,243.3 327.9,242.6 C338.7,241.9 351.2,239.9 361.9,238.5 C372.5,237.2 381.8,235.7 392.0,234.5 C402.1,233.2 413.3,232.2 422.7,231.1 C432.1,230.0 439.0,229.0 448.5,227.8 C458.1,226.5 469.3,224.0 479.9,223.5 C490.6,223.0 501.8,224.0 512.4,224.8 C522.9,225.5 532.8,227.2 543.2,228.0 C553.6,228.7 563.8,227.9 574.9,229.3 C586.0,230.7 598.6,234.9 609.9,236.6 C621.3,238.2 632.6,239.0 642.9,239.1 C653.2,239.3 662.2,238.2 671.9,237.5 C681.6,236.8 690.6,236.3 701.0,235.1 C711.4,233.8 723.9,230.9 734.5,230.1 C745.1,229.2 754.0,230.5 764.6,230.1 C775.2,229.8 792.4,228.4 798.0,228.0" fill="none" stroke="#33200f" stroke-width="1.2" stroke-linecap="round" stroke-linejoin="round"/><path d="M298.5,235.8 C303.9,234.2 320.8,229.3 330.6,226.4 C340.5,223.4 348.2,221.1 357.8,217.9 C367.4,214.8 378.3,210.5 388.4,207.4 C398.5,204.3 407.5,199.7 418.2,199.2 C428.8,198.7 440.0,203.2 452.4,204.4 C464.9,205.6 480.4,204.9 492.7,206.3 C505.0,207.8 515.6,212.2 526.3,213.1 C537.1,214.0 545.5,212.1 557.3,211.9 C569.0,211.6 584.6,213.0 596.8,211.5 C609.1,210.0 619.6,204.4 630.8,203.0 C642.1,201.5 652.6,203.6 664.5,202.7 C676.4,201.9 691.2,197.8 702.3,197.8 C713.4,197.8 720.5,201.3 730.9,202.8 C741.3,204.3 753.4,205.4 764.6,206.6 C775.8,207.8 792.4,209.4 798.0,210.0" fill="none" stroke="#33200f" stroke-width="0.9" stroke-linecap="round" stroke-linejoin="round" opacity="0.7"/><line x1="316.4" y1="262.0" x2="631.8" y2="262.0" stroke="#6b4423" stroke-width="0.8" stroke-linecap="round" opacity="0.8"/><line x1="366.4" y1="271.0" x2="642.1" y2="271.0" stroke="#6b4423" stroke-width="0.8" stroke-linecap="round" opacity="0.8"/><line x1="313.4" y1="280.0" x2="572.2" y2="280.0" stroke="#6b4423" stroke-width="0.8" stroke-linecap="round" opacity="0.8"/><line x1="351.7" y1="289.0" x2="606.3" y2="289.0" stroke="#6b4423" stroke-width="0.8" stroke-linecap="round" opacity="0.8"/><line x1="319.1" y1="298.0" x2="595.6" y2="298.0" stroke="#6b4423" stroke-width="0.8" stroke-linecap="round" opacity="0.8"/><line x1="311.0" y1="307.0" x2="518.2" y2="307.0" stroke="#6b4423" stroke-width="0.8" stroke-linecap="round" opacity="0.8"/><line x1="283.7" y1="316.0" x2="553.2" y2="316.0" stroke="#6b4423" stroke-width="0.8" stroke-linecap="round" opacity="0.8"/><line x1="271.5" y1="325.0" x2="467.6" y2="325.0" stroke="#6b4423" stroke-width="0.8" stroke-linecap="round" opacity="0.8"/><line x1="260.3" y1="334.0" x2="523.3" y2="334.0" stroke="#6b4423" stroke-width="0.8" stroke-linecap="round" opacity="0.8"/><line x1="312.7" y1="343.0" x2="559.7" y2="343.0" stroke="#6b4423" stroke-width="0.8" stroke-linecap="round" opacity="0.8"/><line x1="244.7" y1="352.0" x2="475.0" y2="352.0" stroke="#6b4423" stroke-width="0.8" stroke-linecap="round" opacity="0.8"/><line x1="275.2" y1="361.0" x2="450.0" y2="361.0" stroke="#6b4423" stroke-width="0.8" stroke-linecap="round" opacity="0.8"/><line x1="228.4" y1="370.0" x2="548.0" y2="370.0" stroke="#6b4423" stroke-width="0.8" stroke-linecap="round" opacity="0.8"/><line x1="236.6" y1="379.0" x2="444.8" y2="379.0" stroke="#6b4423" stroke-width="0.8" stroke-linecap="round" opacity="0.8"/><path d="M418.2,388 q-5.1,-21.4 2.6,-42.7" fill="none" stroke="#33200f" stroke-width="1.0" stroke-linecap="round" stroke-linejoin="round"/><ellipse cx="422.2" cy="349.3" rx="2.4" ry="7" fill="#33200f"/><path d="M432.9,388 q-5.9,-24.7 0.7,-49.4" fill="none" stroke="#33200f" stroke-width="1.0" stroke-linecap="round" stroke-linejoin="round"/><path d="M448.0,388 q0.2,-26.6 2.6,-53.2" fill="none" stroke="#33200f" stroke-width="1.0" stroke-linecap="round" stroke-linejoin="round"/><path d="M463.4,388 q-5.6,-17.2 3.0,-34.3" fill="none" stroke="#33200f" stroke-width="1.0" stroke-linecap="round" stroke-linejoin="round"/><path d="M479.3,388 q-2.9,-23.3 5.6,-46.7" fill="none" stroke="#33200f" stroke-width="1.0" stroke-linecap="round" stroke-linejoin="round"/><ellipse cx="483.3" cy="345.3" rx="2.4" ry="7" fill="#33200f"/><path d="M492.8,388 q1.1,-16.6 1.0,-33.2" fill="none" stroke="#33200f" stroke-width="1.0" stroke-linecap="round" stroke-linejoin="round"/><path d="M502.0,388 q-3.6,-17.0 0.9,-34.0" fill="none" stroke="#33200f" stroke-width="1.0" stroke-linecap="round" stroke-linejoin="round"/><path d="M514.3,388 q-5.0,-18.6 6.6,-37.1" fill="none" stroke="#33200f" stroke-width="1.0" stroke-linecap="round" stroke-linejoin="round"/><path d="M532.8,388 q3.3,-13.1 -1.3,-26.1" fill="none" stroke="#33200f" stroke-width="1.0" stroke-linecap="round" stroke-linejoin="round"/><ellipse cx="536.8" cy="365.9" rx="2.4" ry="7" fill="#33200f"/><path d="M545.8,388 q-2.0,-20.8 0.1,-41.5" fill="none" stroke="#33200f" stroke-width="1.0" stroke-linecap="round" stroke-linejoin="round"/><path d="M559.5,388 q4.4,-14.9 -2.4,-29.8" fill="none" stroke="#33200f" stroke-width="1.0" stroke-linecap="round" stroke-linejoin="round"/><path d="M576.6,388 q-2.4,-16.1 1.4,-32.1" fill="none" stroke="#33200f" stroke-width="1.0" stroke-linecap="round" stroke-linejoin="round"/><path d="M584.3,388 q-1.7,-14.8 2.2,-29.6" fill="none" stroke="#33200f" stroke-width="1.0" stroke-linecap="round" stroke-linejoin="round"/><ellipse cx="588.3" cy="362.4" rx="2.4" ry="7" fill="#33200f"/><path d="M605.0,388 q-5.5,-26.9 3.5,-53.7" fill="none" stroke="#33200f" stroke-width="1.0" stroke-linecap="round" stroke-linejoin="round"/><path d="M613.0,388 q-2.1,-24.3 8.5,-48.5" fill="none" stroke="#33200f" stroke-width="1.0" stroke-linecap="round" stroke-linejoin="round"/><path d="M630.4,388 q-5.9,-14.8 -0.5,-29.5" fill="none" stroke="#33200f" stroke-width="1.0" stroke-linecap="round" stroke-linejoin="round"/><path d="M646.9,388 q-0.3,-15.1 1.2,-30.2" fill="none" stroke="#33200f" stroke-width="1.0" stroke-linecap="round" stroke-linejoin="round"/><ellipse cx="650.9" cy="361.8" rx="2.4" ry="7" fill="#33200f"/><path d="M656.8,388 q-3.4,-24.2 6.1,-48.4" fill="none" stroke="#33200f" stroke-width="1.0" stroke-linecap="round" stroke-linejoin="round"/><path d="M673.3,388 q0.2,-26.1 8.9,-52.2" fill="none" stroke="#33200f" stroke-width="1.0" stroke-linecap="round" stroke-linejoin="round"/><path d="M685.5,388 q1.4,-21.0 7.8,-42.1" fill="none" stroke="#33200f" stroke-width="1.0" stroke-linecap="round" stroke-linejoin="round"/><path d="M703.2,388 q-4.4,-14.6 3.5,-29.2" fill="none" stroke="#33200f" stroke-width="1.0" stroke-linecap="round" stroke-linejoin="round"/><ellipse cx="707.2" cy="362.8" rx="2.4" ry="7" fill="#33200f"/><path d="M716.5,388 q-2.4,-20.5 9.5,-40.9" fill="none" stroke="#33200f" stroke-width="1.0" stroke-linecap="round" stroke-linejoin="round"/><path d="M726.4,388 q-5.4,-14.2 -3.6,-28.4" fill="none" stroke="#33200f" stroke-width="1.0" stroke-linecap="round" stroke-linejoin="round"/><path d="M743.8,388 q2.6,-14.5 8.1,-29.0" fill="none" stroke="#33200f" stroke-width="1.0" stroke-linecap="round" stroke-linejoin="round"/><path d="M760.0,388 q-0.9,-24.3 4.7,-48.7" fill="none" stroke="#33200f" stroke-width="1.0" stroke-linecap="round" stroke-linejoin="round"/><ellipse cx="764.0" cy="343.3" rx="2.4" ry="7" fill="#33200f"/><path d="M772.7,388 q-2.5,-23.0 6.7,-46.0" fill="none" stroke="#33200f" stroke-width="1.0" stroke-linecap="round" stroke-linejoin="round"/><path d="M20.4,391.2 C24.6,391.2 38.1,391.2 45.4,391.3 C52.6,391.4 57.1,392.4 63.8,391.9 C70.6,391.4 79.0,388.7 86.0,388.2 C92.9,387.6 98.6,388.2 105.7,388.6 C112.7,389.0 121.0,390.5 128.3,390.7 C135.5,390.9 141.8,390.3 149.3,389.7 C156.8,389.2 165.5,387.6 173.1,387.4 C180.7,387.1 188.2,388.4 195.0,388.1 C201.9,387.8 207.6,385.6 214.4,385.5 C221.2,385.4 228.5,387.7 235.7,387.5 C242.9,387.2 250.3,384.5 257.4,384.0 C264.4,383.5 271.2,384.5 278.1,384.5 C285.0,384.6 292.1,384.1 298.8,384.3 C305.4,384.5 311.5,386.0 318.1,385.9 C324.8,385.8 331.7,383.8 338.7,383.6 C345.8,383.5 353.2,384.6 360.4,385.1 C367.5,385.5 374.9,385.9 381.5,386.4 C388.2,387.0 393.9,388.0 400.1,388.4 C406.3,388.8 412.1,388.7 418.9,388.7 C425.6,388.6 433.4,388.3 440.6,388.0 C447.8,387.7 455.0,387.0 461.8,387.0 C468.6,387.0 474.9,387.8 481.4,388.1 C488.0,388.4 495.2,388.3 501.4,388.8 C507.5,389.2 511.5,390.5 518.2,390.8 C524.9,391.0 534.7,390.1 541.7,390.4 C548.7,390.7 553.5,392.2 559.9,392.4 C566.4,392.6 573.7,391.9 580.6,391.6 C587.5,391.3 593.8,391.0 601.3,390.7 C608.9,390.4 618.6,390.2 625.9,389.7 C633.3,389.3 638.3,388.1 645.4,388.0 C652.6,387.9 661.3,388.7 669.0,389.0 C676.7,389.3 684.7,389.5 691.5,389.7 C698.3,389.8 702.6,390.0 709.9,389.8 C717.1,389.7 727.1,389.2 734.8,388.9 C742.5,388.6 749.0,388.1 756.1,387.8 C763.1,387.5 770.3,387.5 777.2,387.2 C784.2,386.9 794.5,386.2 798.0,386.0" fill="none" stroke="#33200f" stroke-width="1.4" stroke-linecap="round" stroke-linejoin="round"/><path d="M168,400 C188,340 180,270 190,210 C194,180 204,166 214,160 L256,160 C266,168 274,182 278,212 C286,270 276,340 296,400 Z" fill="#f1e0b8" stroke="#33200f" stroke-width="2.0" stroke-linecap="round" stroke-linejoin="round"/><g clip-path="url(#oak-h1)" opacity="0.7"><line x1="369.6" y1="101.4" x2="396.6" y2="411.6" stroke="#33200f" stroke-width="0.7" stroke-linecap="round"/><line x1="366.0" y1="101.7" x2="393.4" y2="411.4" stroke="#33200f" stroke-width="0.7" stroke-linecap="round"/><line x1="362.6" y1="102.0" x2="390.2" y2="411.6" stroke="#33200f" stroke-width="0.7" stroke-linecap="round"/><line x1="360.2" y1="102.3" x2="387.0" y2="412.6" stroke="#33200f" stroke-width="0.7" stroke-linecap="round"/><line x1="356.8" y1="102.5" x2="383.8" y2="412.7" stroke="#33200f" stroke-width="0.7" stroke-linecap="round"/><line x1="353.0" y1="102.8" x2="380.6" y2="412.3" stroke="#33200f" stroke-width="0.7" stroke-linecap="round"/><line x1="350.5" y1="103.1" x2="377.4" y2="413.3" stroke="#33200f" stroke-width="0.7" stroke-linecap="round"/><line x1="347.3" y1="103.4" x2="374.3" y2="413.5" stroke="#33200f" stroke-width="0.7" stroke-linecap="round"/><line x1="344.0" y1="103.7" x2="371.1" y2="413.7" stroke="#33200f" stroke-width="0.7" stroke-linecap="round"/><line x1="341.1" y1="103.9" x2="367.9" y2="414.3" stroke="#33200f" stroke-width="0.7" stroke-linecap="round"/><line x1="338.0" y1="104.2" x2="364.7" y2="414.7" stroke="#33200f" stroke-width="0.7" stroke-linecap="round"/><line x1="334.2" y1="104.5" x2="361.5" y2="414.4" stroke="#33200f" stroke-width="0.7" stroke-linecap="round"/><line x1="331.6" y1="104.8" x2="358.3" y2="415.2" stroke="#33200f" stroke-width="0.7" stroke-linecap="round"/><line x1="328.0" y1="105.1" x2="355.1" y2="415.1" stroke="#33200f" stroke-width="0.7" stroke-linecap="round"/><line x1="324.9" y1="105.3" x2="351.9" y2="415.4" stroke="#33200f" stroke-width="0.7" stroke-linecap="round"/><line x1="321.5" y1="105.6" x2="348.8" y2="415.5" stroke="#33200f" stroke-width="0.7" stroke-linecap="round"/><line x1="319.0" y1="105.9" x2="345.6" y2="416.4" stroke="#33200f" stroke-width="0.7" stroke-linecap="round"/><line x1="315.2" y1="106.2" x2="342.4" y2="416.1" stroke="#33200f" stroke-width="0.7" stroke-linecap="round"/><line x1="312.6" y1="106.4" x2="339.2" y2="417.0" stroke="#33200f" stroke-width="0.7" stroke-linecap="round"/><line x1="308.7" y1="106.7" x2="336.0" y2="416.6" stroke="#33200f" stroke-width="0.7" stroke-linecap="round"/><line x1="305.9" y1="107.0" x2="332.8" y2="417.2" stroke="#33200f" stroke-width="0.7" stroke-linecap="round"/><line x1="303.0" y1="107.3" x2="329.6" y2="417.8" stroke="#33200f" stroke-width="0.7" stroke-linecap="round"/><line x1="299.5" y1="107.6" x2="326.4" y2="417.8" stroke="#33200f" stroke-width="0.7" stroke-linecap="round"/><line x1="296.0" y1="107.8" x2="323.3" y2="417.7" stroke="#33200f" stroke-width="0.7" stroke-linecap="round"/><line x1="292.4" y1="108.1" x2="320.1" y2="417.6" stroke="#33200f" stroke-width="0.7" stroke-linecap="round"/><line x1="289.7" y1="108.4" x2="316.9" y2="418.4" stroke="#33200f" stroke-width="0.7" stroke-linecap="round"/><line x1="286.5" y1="108.7" x2="313.7" y2="418.6" stroke="#33200f" stroke-width="0.7" stroke-linecap="round"/><line x1="283.8" y1="109.0" x2="310.5" y2="419.4" stroke="#33200f" stroke-width="0.7" stroke-linecap="round"/><line x1="280.5" y1="109.2" x2="307.3" y2="419.6" stroke="#33200f" stroke-width="0.7" stroke-linecap="round"/><line x1="277.6" y1="109.5" x2="304.1" y2="420.1" stroke="#33200f" stroke-width="0.7" stroke-linecap="round"/><line x1="273.8" y1="109.8" x2="300.9" y2="419.8" stroke="#33200f" stroke-width="0.7" stroke-linecap="round"/><line x1="270.5" y1="110.1" x2="297.8" y2="420.0" stroke="#33200f" stroke-width="0.7" stroke-linecap="round"/><line x1="267.5" y1="110.4" x2="294.6" y2="420.5" stroke="#33200f" stroke-width="0.7" stroke-linecap="round"/><line x1="264.6" y1="110.6" x2="291.4" y2="421.0" stroke="#33200f" stroke-width="0.7" stroke-linecap="round"/><line x1="260.6" y1="110.9" x2="288.2" y2="420.4" stroke="#33200f" stroke-width="0.7" stroke-linecap="round"/><line x1="257.5" y1="111.2" x2="285.0" y2="420.9" stroke="#33200f" stroke-width="0.7" stroke-linecap="round"/><line x1="254.3" y1="111.5" x2="281.8" y2="421.1" stroke="#33200f" stroke-width="0.7" stroke-linecap="round"/><line x1="251.3" y1="111.7" x2="278.6" y2="421.6" stroke="#33200f" stroke-width="0.7" stroke-linecap="round"/><line x1="248.1" y1="112.0" x2="275.4" y2="421.8" stroke="#33200f" stroke-width="0.7" stroke-linecap="round"/><line x1="245.7" y1="112.3" x2="272.2" y2="422.9" stroke="#33200f" stroke-width="0.7" stroke-linecap="round"/><line x1="241.6" y1="112.6" x2="269.1" y2="422.3" stroke="#33200f" stroke-width="0.7" stroke-linecap="round"/><line x1="239.3" y1="112.9" x2="265.9" y2="423.4" stroke="#33200f" stroke-width="0.7" stroke-linecap="round"/><line x1="235.3" y1="113.1" x2="262.7" y2="422.9" stroke="#33200f" stroke-width="0.7" stroke-linecap="round"/><line x1="232.0" y1="113.4" x2="259.5" y2="423.1" stroke="#33200f" stroke-width="0.7" stroke-linecap="round"/><line x1="229.8" y1="113.7" x2="256.3" y2="424.3" stroke="#33200f" stroke-width="0.7" stroke-linecap="round"/><line x1="225.5" y1="114.0" x2="253.1" y2="423.5" stroke="#33200f" stroke-width="0.7" stroke-linecap="round"/><line x1="222.3" y1="114.3" x2="249.9" y2="423.8" stroke="#33200f" stroke-width="0.7" stroke-linecap="round"/><line x1="219.2" y1="114.5" x2="246.7" y2="424.1" stroke="#33200f" stroke-width="0.7" stroke-linecap="round"/><line x1="215.9" y1="114.8" x2="243.6" y2="424.3" stroke="#33200f" stroke-width="0.7" stroke-linecap="round"/><line x1="213.1" y1="115.1" x2="240.4" y2="425.0" stroke="#33200f" stroke-width="0.7" stroke-linecap="round"/><line x1="209.7" y1="115.4" x2="237.2" y2="425.1" stroke="#33200f" stroke-width="0.7" stroke-linecap="round"/><line x1="206.5" y1="115.6" x2="234.0" y2="425.3" stroke="#33200f" stroke-width="0.7" stroke-linecap="round"/><line x1="203.1" y1="115.9" x2="230.8" y2="425.4" stroke="#33200f" stroke-width="0.7" stroke-linecap="round"/><line x1="200.7" y1="116.2" x2="227.6" y2="426.5" stroke="#33200f" stroke-width="0.7" stroke-linecap="round"/><line x1="196.8" y1="116.5" x2="224.4" y2="426.0" stroke="#33200f" stroke-width="0.7" stroke-linecap="round"/><line x1="193.8" y1="116.8" x2="221.2" y2="426.5" stroke="#33200f" stroke-width="0.7" stroke-linecap="round"/><line x1="191.0" y1="117.0" x2="218.1" y2="427.1" stroke="#33200f" stroke-width="0.7" stroke-linecap="round"/><line x1="188.2" y1="117.3" x2="214.9" y2="427.8" stroke="#33200f" stroke-width="0.7" stroke-linecap="round"/><line x1="184.7" y1="117.6" x2="211.7" y2="427.8" stroke="#33200f" stroke-width="0.7" stroke-linecap="round"/><line x1="181.6" y1="117.9" x2="208.5" y2="428.2" stroke="#33200f" stroke-width="0.7" stroke-linecap="round"/><line x1="178.4" y1="118.2" x2="205.3" y2="428.4" stroke="#33200f" stroke-width="0.7" stroke-linecap="round"/><line x1="175.4" y1="118.4" x2="202.1" y2="428.8" stroke="#33200f" stroke-width="0.7" stroke-linecap="round"/><line x1="172.2" y1="118.7" x2="198.9" y2="429.2" stroke="#33200f" stroke-width="0.7" stroke-linecap="round"/><line x1="168.2" y1="119.0" x2="195.7" y2="428.6" stroke="#33200f" stroke-width="0.7" stroke-linecap="round"/><line x1="164.9" y1="119.3" x2="192.6" y2="428.8" stroke="#33200f" stroke-width="0.7" stroke-linecap="round"/><line x1="162.4" y1="119.6" x2="189.4" y2="429.7" stroke="#33200f" stroke-width="0.7" stroke-linecap="round"/><line x1="159.1" y1="119.8" x2="186.2" y2="429.9" stroke="#33200f" stroke-width="0.7" stroke-linecap="round"/><line x1="155.9" y1="120.1" x2="183.0" y2="430.2" stroke="#33200f" stroke-width="0.7" stroke-linecap="round"/><line x1="153.0" y1="120.4" x2="179.8" y2="430.8" stroke="#33200f" stroke-width="0.7" stroke-linecap="round"/><line x1="149.1" y1="120.7" x2="176.6" y2="430.3" stroke="#33200f" stroke-width="0.7" stroke-linecap="round"/><line x1="146.6" y1="120.9" x2="173.4" y2="431.2" stroke="#33200f" stroke-width="0.7" stroke-linecap="round"/><line x1="143.0" y1="121.2" x2="170.2" y2="431.2" stroke="#33200f" stroke-width="0.7" stroke-linecap="round"/><line x1="139.8" y1="121.5" x2="167.1" y2="431.4" stroke="#33200f" stroke-width="0.7" stroke-linecap="round"/><line x1="136.4" y1="121.8" x2="163.9" y2="431.5" stroke="#33200f" stroke-width="0.7" stroke-linecap="round"/><line x1="133.3" y1="122.1" x2="160.7" y2="431.8" stroke="#33200f" stroke-width="0.7" stroke-linecap="round"/><line x1="130.5" y1="122.3" x2="157.5" y2="432.5" stroke="#33200f" stroke-width="0.7" stroke-linecap="round"/><line x1="127.2" y1="122.6" x2="154.3" y2="432.7" stroke="#33200f" stroke-width="0.7" stroke-linecap="round"/><line x1="124.5" y1="122.9" x2="151.1" y2="433.4" stroke="#33200f" stroke-width="0.7" stroke-linecap="round"/><line x1="120.5" y1="123.2" x2="147.9" y2="432.9" stroke="#33200f" stroke-width="0.7" stroke-linecap="round"/><line x1="117.9" y1="123.5" x2="144.7" y2="433.7" stroke="#33200f" stroke-width="0.7" stroke-linecap="round"/><line x1="113.9" y1="123.7" x2="141.5" y2="433.3" stroke="#33200f" stroke-width="0.7" stroke-linecap="round"/><line x1="111.4" y1="124.0" x2="138.4" y2="434.2" stroke="#33200f" stroke-width="0.7" stroke-linecap="round"/><line x1="107.6" y1="124.3" x2="135.2" y2="433.9" stroke="#33200f" stroke-width="0.7" stroke-linecap="round"/><line x1="105.3" y1="124.6" x2="132.0" y2="435.0" stroke="#33200f" stroke-width="0.7" stroke-linecap="round"/><line x1="102.2" y1="124.9" x2="128.8" y2="435.4" stroke="#33200f" stroke-width="0.7" stroke-linecap="round"/><line x1="98.2" y1="125.1" x2="125.6" y2="434.9" stroke="#33200f" stroke-width="0.7" stroke-linecap="round"/><line x1="95.7" y1="125.4" x2="122.4" y2="435.8" stroke="#33200f" stroke-width="0.7" stroke-linecap="round"/><line x1="91.8" y1="125.7" x2="119.2" y2="435.4" stroke="#33200f" stroke-width="0.7" stroke-linecap="round"/><line x1="88.7" y1="126.0" x2="116.0" y2="435.8" stroke="#33200f" stroke-width="0.7" stroke-linecap="round"/><line x1="85.3" y1="126.2" x2="112.9" y2="435.8" stroke="#33200f" stroke-width="0.7" stroke-linecap="round"/><line x1="82.5" y1="126.5" x2="109.7" y2="436.5" stroke="#33200f" stroke-width="0.7" stroke-linecap="round"/><line x1="78.9" y1="126.8" x2="106.5" y2="436.4" stroke="#33200f" stroke-width="0.7" stroke-linecap="round"/><line x1="76.4" y1="127.1" x2="103.3" y2="437.4" stroke="#33200f" stroke-width="0.7" stroke-linecap="round"/><line x1="73.1" y1="127.4" x2="100.1" y2="437.5" stroke="#33200f" stroke-width="0.7" stroke-linecap="round"/><line x1="69.7" y1="127.6" x2="96.9" y2="437.6" stroke="#33200f" stroke-width="0.7" stroke-linecap="round"/><line x1="66.9" y1="127.9" x2="93.7" y2="438.2" stroke="#33200f" stroke-width="0.7" stroke-linecap="round"/><line x1="63.1" y1="128.2" x2="90.5" y2="437.9" stroke="#33200f" stroke-width="0.7" stroke-linecap="round"/><line x1="60.0" y1="128.5" x2="87.4" y2="438.3" stroke="#33200f" stroke-width="0.7" stroke-linecap="round"/></g><path d="M185.5,394.0 C186.1,390.1 188.7,377.8 189.0,370.4 C189.4,362.9 187.0,357.0 187.4,349.2 C187.9,341.4 191.1,332.2 191.8,323.8 C192.5,315.4 191.5,307.3 191.7,298.6 C191.8,289.8 191.9,281.0 192.7,271.4 C193.4,261.9 195.1,250.8 196.3,241.3 C197.5,231.7 199.4,218.5 200.0,214.0" fill="none" stroke="#33200f" stroke-width="0.9" stroke-linecap="round" stroke-linejoin="round" opacity="0.8"/><path d="M209.6,394.1 C209.3,390.6 207.9,380.9 207.9,373.0 C208.0,365.1 209.6,354.6 210.0,346.4 C210.4,338.3 210.4,331.7 210.5,324.3 C210.6,316.8 210.1,310.5 210.5,301.8 C210.9,293.0 212.2,281.6 212.9,271.7 C213.5,261.9 214.1,252.3 214.4,242.6 C214.8,233.0 214.9,218.8 215.0,214.0" fill="none" stroke="#33200f" stroke-width="0.9" stroke-linecap="round" stroke-linejoin="round" opacity="0.8"/><path d="M230.2,397.3 C230.2,393.0 230.5,379.5 230.0,371.5 C229.5,363.5 227.4,357.1 227.1,349.2 C226.7,341.2 227.8,331.9 227.9,323.7 C227.9,315.6 227.1,308.7 227.2,300.2 C227.2,291.7 227.8,282.2 228.3,272.7 C228.7,263.1 229.4,252.7 229.7,242.9 C230.0,233.1 230.0,218.8 230.0,214.0" fill="none" stroke="#33200f" stroke-width="0.9" stroke-linecap="round" stroke-linejoin="round" opacity="0.8"/><path d="M253.1,395.8 C252.7,392.0 251.2,380.8 250.6,373.0 C250.1,365.2 250.2,357.1 249.9,349.0 C249.6,340.8 249.7,332.6 249.1,324.2 C248.5,315.9 247.0,307.6 246.2,298.8 C245.5,289.9 244.8,280.2 244.6,271.1 C244.5,262.0 245.3,253.8 245.3,244.3 C245.4,234.8 245.1,219.0 245.0,214.0" fill="none" stroke="#33200f" stroke-width="0.9" stroke-linecap="round" stroke-linejoin="round" opacity="0.8"/><path d="M272.2,395.4 C272.2,391.5 272.8,380.0 272.5,371.8 C272.2,363.7 271.2,354.7 270.4,346.6 C269.6,338.6 268.6,331.8 267.6,323.7 C266.6,315.7 265.2,306.8 264.3,298.2 C263.4,289.7 262.6,281.8 262.3,272.5 C261.9,263.3 262.7,252.7 262.3,242.9 C261.9,233.2 260.4,218.8 260.0,214.0" fill="none" stroke="#33200f" stroke-width="0.9" stroke-linecap="round" stroke-linejoin="round" opacity="0.8"/><path d="M206,330 C200,300 212,272 230,268 C250,270 258,300 252,332 C244,344 214,344 206,330 Z" fill="#33200f" stroke="#33200f" stroke-width="1.8" stroke-linecap="round" stroke-linejoin="round"/><path d="M224,300 C214,262 224,236 246,226 C244,252 238,280 232,302" fill="#f1e0b8" stroke="#33200f" stroke-width="1.2" stroke-linecap="round" stroke-linejoin="round"/><path d="M232,302 C232,270 238,248 246,226" fill="none" stroke="#33200f" stroke-width="0.9" stroke-linecap="round" stroke-linejoin="round"/><path d="M147.8,150.0 C147.5,154.5 151.0,159.6 149.3,163.3 C147.5,167.1 141.1,169.1 137.3,172.4 C133.6,175.7 131.3,181.6 126.8,183.2 C122.2,184.8 115.6,181.7 110.0,181.7 C104.4,181.8 97.5,185.3 93.0,183.6 C88.6,182.0 87.5,175.1 83.4,171.9 C79.2,168.6 69.9,167.8 68.2,164.2 C66.5,160.5 73.2,154.7 73.2,150.0 C73.1,145.3 66.2,139.3 68.0,135.7 C69.8,132.2 80.0,132.1 84.1,128.7 C88.2,125.4 88.3,117.2 92.6,115.5 C96.9,113.8 104.3,118.4 110.0,118.6 C115.7,118.8 122.1,115.4 126.8,116.8 C131.4,118.2 133.9,123.9 137.9,127.2 C141.8,130.4 149.0,132.4 150.7,136.2 C152.3,140.0 148.0,145.5 147.8,150.0 Z" fill="#f1e0b8" stroke="#33200f" stroke-width="1.3" stroke-linecap="round" stroke-linejoin="round"/><g fill="#33200f" opacity="0.8"><circle cx="133.8" cy="161.1" r="0.7"/><circle cx="128.5" cy="150.0" r="1.1"/><circle cx="125.6" cy="186.9" r="0.9"/><circle cx="109.5" cy="158.3" r="0.7"/><circle cx="127.6" cy="181.1" r="0.9"/><circle cx="120.3" cy="160.9" r="0.6"/><circle cx="111.9" cy="173.0" r="0.9"/><circle cx="127.7" cy="151.0" r="0.6"/><circle cx="123.7" cy="175.3" r="0.7"/><circle cx="127.6" cy="147.1" r="0.7"/><circle cx="134.5" cy="158.1" r="0.5"/><circle cx="132.5" cy="156.4" r="0.8"/><circle cx="99.2" cy="159.5" r="0.9"/><circle cx="115.6" cy="180.3" r="0.8"/><circle cx="127.2" cy="147.3" r="0.9"/><circle cx="129.0" cy="137.6" r="1.0"/><circle cx="131.1" cy="178.6" r="1.0"/><circle cx="117.6" cy="186.0" r="0.6"/><circle cx="116.7" cy="165.0" r="0.7"/><circle cx="135.0" cy="143.4" r="0.6"/><circle cx="107.8" cy="164.7" r="0.8"/><circle cx="119.4" cy="164.0" r="0.5"/><circle cx="133.8" cy="169.4" r="0.9"/><circle cx="104.4" cy="183.0" r="0.6"/><circle cx="131.6" cy="163.8" r="0.7"/><circle cx="139.3" cy="151.2" r="0.7"/><circle cx="136.5" cy="177.3" r="0.9"/><circle cx="103.9" cy="162.0" r="1.0"/><circle cx="124.5" cy="187.1" r="0.8"/><circle cx="103.7" cy="141.9" r="0.7"/><circle cx="93.7" cy="165.2" r="0.8"/><circle cx="137.3" cy="138.2" r="1.0"/><circle cx="119.4" cy="160.0" r="0.7"/><circle cx="116.4" cy="143.2" r="0.8"/><circle cx="144.2" cy="175.0" r="1.0"/><circle cx="101.7" cy="149.1" r="0.8"/><circle cx="139.0" cy="145.9" r="0.8"/><circle cx="115.9" cy="147.2" r="0.7"/><circle cx="96.5" cy="153.3" r="0.8"/><circle cx="118.9" cy="141.9" r="1.0"/><circle cx="141.6" cy="155.6" r="0.7"/><circle cx="142.3" cy="148.4" r="0.9"/><circle cx="107.5" cy="178.7" r="0.9"/><circle cx="105.4" cy="139.2" r="1.0"/><circle cx="137.0" cy="158.2" r="1.0"/><circle cx="112.2" cy="143.2" r="0.7"/><circle cx="143.8" cy="154.2" r="0.6"/><circle cx="134.5" cy="178.5" r="1.0"/><circle cx="108.4" cy="150.5" r="1.0"/><circle cx="146.9" cy="170.2" r="0.7"/><circle cx="139.8" cy="183.2" r="0.6"/><circle cx="104.0" cy="154.1" r="0.7"/><circle cx="143.2" cy="150.5" r="0.7"/><circle cx="116.4" cy="145.7" r="0.9"/><circle cx="140.3" cy="183.0" r="0.8"/><circle cx="132.6" cy="180.8" r="0.8"/><circle cx="123.7" cy="137.3" r="0.8"/><circle cx="119.8" cy="138.5" r="0.7"/><circle cx="115.0" cy="136.1" r="0.6"/><circle cx="143.6" cy="159.5" r="1.1"/></g><path d="M90.0,140.0 q12.0,-14.0 28.0,-12.0" fill="none" stroke="#33200f" stroke-width="0.8" stroke-linecap="round" stroke-linejoin="round" opacity="0.7"/><path d="M193.6,100.0 C193.5,105.2 198.2,111.5 195.9,115.6 C193.6,119.7 184.2,120.6 179.8,124.5 C175.4,128.3 174.5,136.7 169.5,138.7 C164.6,140.7 156.5,136.4 150.0,136.4 C143.5,136.4 135.7,140.5 130.4,138.8 C125.1,137.1 122.3,130.1 118.0,126.2 C113.7,122.3 106.7,119.8 104.6,115.4 C102.6,111.0 106.1,105.3 105.8,100.0 C105.4,94.7 100.5,88.3 102.6,83.9 C104.6,79.5 113.2,77.3 118.0,73.7 C122.7,70.1 125.6,64.2 131.0,62.4 C136.3,60.6 143.7,62.8 150.0,62.9 C156.3,63.0 163.5,61.1 168.7,63.0 C173.9,64.9 176.6,70.9 181.1,74.5 C185.7,78.0 194.1,80.1 196.2,84.3 C198.2,88.6 193.6,94.8 193.6,100.0 Z" fill="#f1e0b8" stroke="#33200f" stroke-width="1.3" stroke-linecap="round" stroke-linejoin="round"/><g fill="#33200f" opacity="0.8"><circle cx="146.6" cy="91.3" r="0.7"/><circle cx="158.0" cy="101.0" r="1.1"/><circle cx="151.2" cy="87.5" r="0.7"/><circle cx="157.5" cy="122.5" r="0.8"/><circle cx="157.8" cy="119.4" r="0.7"/><circle cx="160.8" cy="138.4" r="0.9"/><circle cx="165.9" cy="133.1" r="0.8"/><circle cx="180.5" cy="117.5" r="0.8"/><circle cx="175.7" cy="138.0" r="0.6"/><circle cx="144.7" cy="115.0" r="0.7"/><circle cx="141.9" cy="112.8" r="1.0"/><circle cx="151.0" cy="115.2" r="0.9"/><circle cx="163.6" cy="95.5" r="0.7"/><circle cx="175.3" cy="113.9" r="0.9"/><circle cx="153.0" cy="97.0" r="0.9"/><circle cx="184.3" cy="90.1" r="0.7"/><circle cx="168.8" cy="135.2" r="0.8"/><circle cx="158.7" cy="136.0" r="1.0"/><circle cx="146.2" cy="93.3" r="0.7"/><circle cx="188.2" cy="105.4" r="1.0"/><circle cx="157.2" cy="117.6" r="0.6"/><circle cx="150.2" cy="105.7" r="0.8"/><circle cx="152.9" cy="137.5" r="1.0"/><circle cx="166.2" cy="141.0" r="0.9"/><circle cx="195.6" cy="113.6" r="0.7"/><circle cx="155.0" cy="92.2" r="0.8"/><circle cx="195.2" cy="118.3" r="0.8"/><circle cx="148.6" cy="141.8" r="0.6"/><circle cx="163.5" cy="100.3" r="0.6"/><circle cx="145.5" cy="116.0" r="1.0"/><circle cx="162.8" cy="87.2" r="0.6"/><circle cx="146.9" cy="107.2" r="0.7"/><circle cx="148.3" cy="119.0" r="0.7"/><circle cx="161.2" cy="86.2" r="0.9"/><circle cx="176.8" cy="143.5" r="1.0"/><circle cx="159.5" cy="104.2" r="0.7"/><circle cx="139.0" cy="119.6" r="0.7"/><circle cx="155.2" cy="98.1" r="0.8"/><circle cx="147.4" cy="134.7" r="0.7"/><circle cx="180.6" cy="128.6" r="0.6"/><circle cx="155.9" cy="84.3" r="0.8"/><circle cx="191.4" cy="102.1" r="1.1"/><circle cx="156.2" cy="136.1" r="1.0"/><circle cx="192.8" cy="114.1" r="1.0"/><circle cx="179.6" cy="97.7" r="0.7"/><circle cx="177.4" cy="111.1" r="1.0"/><circle cx="157.8" cy="83.0" r="0.7"/><circle cx="150.6" cy="121.0" r="0.9"/><circle cx="146.3" cy="113.9" r="0.9"/><circle cx="188.1" cy="116.9" r="1.0"/><circle cx="156.5" cy="114.6" r="0.7"/><circle cx="160.3" cy="114.2" r="1.0"/><circle cx="136.2" cy="113.0" r="0.9"/><circle cx="144.7" cy="109.2" r="0.8"/><circle cx="174.9" cy="136.4" r="0.9"/><circle cx="157.6" cy="103.8" r="0.6"/><circle cx="150.2" cy="122.8" r="1.0"/><circle cx="138.0" cy="95.3" r="1.0"/><circle cx="132.2" cy="107.5" r="0.9"/><circle cx="170.6" cy="84.8" r="0.8"/></g><path d="M127.0,88.5 q13.8,-16.1 32.2,-13.8" fill="none" stroke="#33200f" stroke-width="0.8" stroke-linecap="round" stroke-linejoin="round" opacity="0.7"/><path d="M258.7,70.0 C259.2,75.8 265.1,83.3 262.4,87.8 C259.8,92.3 248.3,93.2 243.0,97.0 C237.7,100.9 236.3,109.0 230.8,111.2 C225.3,113.3 217.0,109.8 210.0,109.9 C203.0,109.9 194.8,113.4 189.0,111.5 C183.2,109.6 180.2,102.5 175.3,98.5 C170.4,94.4 161.5,91.8 159.7,87.1 C157.8,82.4 164.2,75.7 164.3,70.0 C164.3,64.3 158.1,57.8 160.0,53.0 C161.8,48.3 170.5,45.7 175.3,41.5 C180.1,37.4 183.0,30.1 188.8,28.1 C194.6,26.1 202.9,29.6 210.0,29.5 C217.1,29.4 225.9,25.3 231.5,27.4 C237.2,29.4 239.4,37.7 244.1,42.0 C248.8,46.3 257.2,48.5 259.6,53.1 C262.1,57.8 258.2,64.2 258.7,70.0 Z" fill="#f1e0b8" stroke="#33200f" stroke-width="1.3" stroke-linecap="round" stroke-linejoin="round"/><g fill="#33200f" opacity="0.8"><circle cx="200.4" cy="70.5" r="1.0"/><circle cx="234.6" cy="88.4" r="0.9"/><circle cx="210.1" cy="111.5" r="0.9"/><circle cx="237.3" cy="113.1" r="0.9"/><circle cx="207.7" cy="102.7" r="0.6"/><circle cx="211.8" cy="84.3" r="0.9"/><circle cx="211.8" cy="57.3" r="0.9"/><circle cx="217.7" cy="65.8" r="1.0"/><circle cx="230.2" cy="118.5" r="1.0"/><circle cx="211.2" cy="87.0" r="0.7"/><circle cx="215.4" cy="119.1" r="0.6"/><circle cx="202.5" cy="63.1" r="0.9"/><circle cx="234.9" cy="75.3" r="0.7"/><circle cx="205.8" cy="76.2" r="1.1"/><circle cx="208.4" cy="101.4" r="0.9"/><circle cx="243.0" cy="82.4" r="0.6"/><circle cx="226.7" cy="55.8" r="0.6"/><circle cx="211.0" cy="75.0" r="1.0"/><circle cx="239.3" cy="60.2" r="0.9"/><circle cx="197.4" cy="87.5" r="0.8"/><circle cx="226.1" cy="109.9" r="1.0"/><circle cx="241.3" cy="90.6" r="1.1"/><circle cx="240.5" cy="56.0" r="0.7"/><circle cx="222.7" cy="94.4" r="0.9"/><circle cx="207.2" cy="64.0" r="1.0"/><circle cx="237.0" cy="54.1" r="0.9"/><circle cx="235.3" cy="53.5" r="0.8"/><circle cx="216.7" cy="92.5" r="1.1"/><circle cx="204.4" cy="74.8" r="0.9"/><circle cx="236.3" cy="86.4" r="1.1"/><circle cx="204.2" cy="74.8" r="0.6"/><circle cx="211.3" cy="71.2" r="0.7"/><circle cx="218.1" cy="105.7" r="0.8"/><circle cx="254.1" cy="77.3" r="0.8"/><circle cx="213.1" cy="61.0" r="1.0"/><circle cx="210.0" cy="114.6" r="1.0"/><circle cx="247.6" cy="101.7" r="1.1"/><circle cx="225.5" cy="103.8" r="0.7"/><circle cx="235.9" cy="68.2" r="0.7"/><circle cx="258.3" cy="89.9" r="1.1"/><circle cx="237.5" cy="102.9" r="0.7"/><circle cx="236.8" cy="88.8" r="0.8"/><circle cx="218.2" cy="116.3" r="0.9"/><circle cx="204.3" cy="103.8" r="0.7"/><circle cx="244.5" cy="107.7" r="0.6"/><circle cx="215.5" cy="74.9" r="1.0"/><circle cx="195.3" cy="98.2" r="1.0"/><circle cx="248.2" cy="61.8" r="0.7"/><circle cx="213.0" cy="115.4" r="1.0"/><circle cx="202.9" cy="97.6" r="0.6"/><circle cx="220.6" cy="56.3" r="0.6"/><circle cx="245.3" cy="103.9" r="0.7"/><circle cx="207.4" cy="61.4" r="1.0"/><circle cx="193.2" cy="94.5" r="0.7"/><circle cx="198.0" cy="97.2" r="1.0"/><circle cx="240.8" cy="88.0" r="0.8"/><circle cx="202.6" cy="112.7" r="0.7"/><circle cx="201.2" cy="88.6" r="0.8"/><circle cx="242.7" cy="94.6" r="0.6"/><circle cx="251.4" cy="90.0" r="1.0"/></g><path d="M185.0,57.5 q15.0,-17.5 35.0,-15.0" fill="none" stroke="#33200f" stroke-width="0.8" stroke-linecap="round" stroke-linejoin="round" opacity="0.7"/><path d="M325.7,66.0 C325.9,71.6 332.4,78.6 330.1,83.0 C327.9,87.4 317.2,88.5 312.3,92.5 C307.5,96.5 306.2,105.2 300.8,107.2 C295.4,109.1 286.8,104.7 280.0,104.3 C273.2,104.0 265.8,107.0 260.2,105.1 C254.7,103.3 251.4,97.1 246.7,93.3 C242.1,89.5 234.5,86.7 232.4,82.2 C230.4,77.6 234.5,71.4 234.4,66.0 C234.3,60.6 229.5,54.0 231.8,49.6 C234.0,45.2 243.2,43.5 247.9,39.7 C252.6,35.9 254.8,28.4 260.1,26.6 C265.5,24.9 273.3,29.4 280.0,29.2 C286.7,29.0 295.2,23.5 300.6,25.3 C305.9,27.1 307.3,35.8 312.0,39.8 C316.7,43.8 326.6,45.0 328.8,49.4 C331.1,53.8 325.5,60.4 325.7,66.0 Z" fill="#f1e0b8" stroke="#33200f" stroke-width="1.3" stroke-linecap="round" stroke-linejoin="round"/><g fill="#33200f" opacity="0.8"><circle cx="298.3" cy="57.1" r="0.8"/><circle cx="298.0" cy="95.2" r="0.6"/><circle cx="273.2" cy="99.8" r="1.1"/><circle cx="300.4" cy="111.0" r="0.7"/><circle cx="296.0" cy="107.6" r="0.6"/><circle cx="290.7" cy="48.2" r="0.8"/><circle cx="316.5" cy="60.0" r="0.6"/><circle cx="281.1" cy="74.3" r="0.7"/><circle cx="277.8" cy="71.6" r="0.6"/><circle cx="318.3" cy="78.0" r="0.7"/><circle cx="319.8" cy="91.6" r="0.9"/><circle cx="279.8" cy="84.3" r="0.7"/><circle cx="282.7" cy="99.2" r="0.9"/><circle cx="303.1" cy="82.4" r="0.8"/><circle cx="325.1" cy="77.1" r="0.8"/><circle cx="297.0" cy="60.4" r="0.7"/><circle cx="292.6" cy="110.7" r="0.9"/><circle cx="317.3" cy="55.6" r="1.1"/><circle cx="321.1" cy="90.8" r="0.6"/><circle cx="319.2" cy="72.2" r="0.8"/><circle cx="310.4" cy="73.7" r="1.0"/><circle cx="312.1" cy="72.0" r="0.9"/><circle cx="303.1" cy="76.8" r="0.8"/><circle cx="296.6" cy="79.4" r="0.9"/><circle cx="277.9" cy="79.7" r="0.8"/><circle cx="298.4" cy="96.6" r="0.9"/><circle cx="292.8" cy="52.3" r="0.9"/><circle cx="313.2" cy="84.5" r="0.6"/><circle cx="305.7" cy="108.8" r="1.0"/><circle cx="303.6" cy="60.4" r="0.7"/><circle cx="290.7" cy="55.5" r="1.0"/><circle cx="322.7" cy="73.1" r="1.0"/><circle cx="281.2" cy="81.4" r="0.6"/><circle cx="263.5" cy="91.2" r="0.9"/><circle cx="316.5" cy="89.0" r="0.7"/><circle cx="312.5" cy="94.5" r="0.7"/><circle cx="303.6" cy="95.9" r="0.6"/><circle cx="285.5" cy="71.7" r="0.8"/><circle cx="277.4" cy="103.3" r="0.7"/><circle cx="301.5" cy="74.3" r="0.9"/><circle cx="260.5" cy="80.5" r="0.8"/><circle cx="295.9" cy="113.0" r="1.0"/><circle cx="298.8" cy="63.1" r="0.9"/><circle cx="274.6" cy="67.3" r="0.7"/><circle cx="303.9" cy="88.1" r="0.9"/><circle cx="285.3" cy="60.6" r="0.8"/><circle cx="325.1" cy="71.0" r="1.0"/><circle cx="277.7" cy="59.2" r="1.0"/><circle cx="318.8" cy="61.7" r="0.6"/><circle cx="294.3" cy="103.2" r="0.6"/><circle cx="281.2" cy="86.2" r="0.7"/><circle cx="300.0" cy="89.8" r="1.1"/><circle cx="265.8" cy="74.8" r="0.9"/><circle cx="271.7" cy="61.2" r="0.8"/><circle cx="269.8" cy="60.0" r="1.0"/><circle cx="292.4" cy="104.0" r="1.0"/><circle cx="282.5" cy="105.3" r="0.6"/><circle cx="267.9" cy="65.4" r="0.6"/><circle cx="315.4" cy="100.0" r="0.7"/><circle cx="310.4" cy="90.5" r="0.9"/></g><path d="M256.0,54.0 q14.4,-16.8 33.6,-14.4" fill="none" stroke="#33200f" stroke-width="0.8" stroke-linecap="round" stroke-linejoin="round" opacity="0.7"/><path d="M383.1,100.0 C383.2,105.0 386.2,110.8 384.1,115.0 C382.0,119.1 374.6,121.2 370.4,124.9 C366.2,128.7 364.0,135.9 359.0,137.5 C353.9,139.1 346.2,134.7 340.0,134.5 C333.8,134.2 326.7,137.7 321.8,136.0 C316.9,134.3 315.1,127.6 310.6,124.1 C306.0,120.7 296.7,119.5 294.4,115.5 C292.1,111.5 296.4,105.1 296.7,100.0 C296.9,94.9 293.7,89.1 295.9,85.0 C298.1,80.9 305.9,79.2 310.1,75.5 C314.2,71.7 315.9,64.1 320.9,62.3 C325.9,60.4 333.8,64.1 340.0,64.5 C346.2,64.8 353.2,62.3 358.1,64.2 C363.0,66.1 365.2,72.3 369.5,75.8 C373.8,79.3 381.4,81.1 383.7,85.2 C385.9,89.2 383.0,95.0 383.1,100.0 Z" fill="#f1e0b8" stroke="#33200f" stroke-width="1.3" stroke-linecap="round" stroke-linejoin="round"/><g fill="#33200f" opacity="0.8"><circle cx="364.3" cy="123.9" r="1.0"/><circle cx="332.8" cy="119.0" r="0.6"/><circle cx="343.6" cy="100.7" r="0.8"/><circle cx="345.7" cy="114.3" r="0.6"/><circle cx="329.2" cy="104.0" r="1.0"/><circle cx="353.5" cy="123.6" r="0.7"/><circle cx="333.1" cy="90.0" r="0.7"/><circle cx="335.3" cy="87.6" r="0.7"/><circle cx="371.4" cy="116.3" r="0.7"/><circle cx="372.6" cy="126.3" r="0.6"/><circle cx="376.5" cy="119.6" r="0.8"/><circle cx="351.9" cy="141.6" r="0.8"/><circle cx="360.6" cy="130.1" r="1.0"/><circle cx="350.6" cy="130.9" r="1.0"/><circle cx="372.1" cy="102.5" r="0.8"/><circle cx="364.8" cy="114.6" r="0.8"/><circle cx="377.7" cy="114.2" r="0.6"/><circle cx="350.9" cy="116.6" r="1.0"/><circle cx="370.5" cy="91.7" r="0.8"/><circle cx="340.7" cy="135.2" r="0.6"/><circle cx="373.2" cy="136.9" r="0.9"/><circle cx="330.7" cy="99.6" r="0.9"/><circle cx="349.7" cy="139.1" r="0.8"/><circle cx="337.8" cy="131.1" r="1.0"/><circle cx="367.9" cy="108.3" r="0.6"/><circle cx="342.0" cy="123.3" r="0.8"/><circle cx="348.8" cy="127.9" r="0.7"/><circle cx="342.4" cy="132.8" r="1.1"/><circle cx="350.5" cy="117.1" r="1.0"/><circle cx="373.4" cy="98.4" r="0.8"/><circle cx="361.9" cy="131.7" r="0.7"/><circle cx="326.7" cy="105.9" r="0.8"/><circle cx="354.2" cy="101.0" r="0.7"/><circle cx="380.8" cy="98.7" r="1.0"/><circle cx="339.0" cy="87.8" r="0.8"/><circle cx="364.0" cy="107.9" r="0.9"/><circle cx="341.9" cy="139.1" r="0.8"/><circle cx="375.4" cy="119.3" r="0.9"/><circle cx="354.5" cy="114.2" r="0.7"/><circle cx="375.1" cy="130.7" r="0.9"/><circle cx="381.5" cy="122.8" r="0.6"/><circle cx="377.3" cy="116.3" r="1.0"/><circle cx="323.8" cy="111.5" r="0.6"/><circle cx="323.0" cy="113.8" r="0.7"/><circle cx="349.1" cy="86.0" r="0.6"/><circle cx="364.7" cy="137.4" r="1.1"/><circle cx="364.0" cy="122.9" r="0.6"/><circle cx="350.1" cy="104.8" r="0.7"/><circle cx="377.2" cy="122.4" r="0.6"/><circle cx="325.0" cy="107.5" r="1.0"/><circle cx="340.4" cy="113.7" r="1.0"/><circle cx="362.0" cy="94.9" r="0.9"/><circle cx="365.3" cy="102.5" r="0.6"/><circle cx="376.6" cy="129.8" r="0.9"/><circle cx="365.2" cy="137.7" r="0.7"/><circle cx="353.3" cy="102.3" r="0.9"/><circle cx="359.5" cy="142.1" r="0.9"/><circle cx="341.1" cy="114.6" r="1.1"/><circle cx="345.5" cy="136.2" r="0.7"/><circle cx="349.5" cy="113.2" r="0.9"/></g><path d="M318.0,89.0 q13.2,-15.4 30.8,-13.2" fill="none" stroke="#33200f" stroke-width="0.8" stroke-linecap="round" stroke-linejoin="round" opacity="0.7"/><path d="M407.1,150.0 C406.8,154.4 410.3,159.6 408.2,163.0 C406.1,166.3 398.2,166.9 394.6,170.2 C391.0,173.4 390.5,180.9 386.4,182.5 C382.3,184.2 375.3,180.2 370.0,179.9 C364.7,179.6 358.9,182.0 354.5,180.7 C350.1,179.3 347.5,174.6 343.5,171.7 C339.4,168.9 331.8,167.1 330.2,163.5 C328.6,159.9 333.5,154.4 333.7,150.0 C334.0,145.6 330.2,140.6 331.9,137.1 C333.6,133.5 340.3,131.9 343.9,128.6 C347.6,125.4 349.3,119.2 353.7,117.6 C358.0,116.1 364.6,119.4 370.0,119.5 C375.4,119.6 381.7,116.7 386.1,118.2 C390.4,119.7 392.2,125.5 396.1,128.6 C400.1,131.6 408.1,132.9 409.9,136.4 C411.7,140.0 407.4,145.6 407.1,150.0 Z" fill="#f1e0b8" stroke="#33200f" stroke-width="1.3" stroke-linecap="round" stroke-linejoin="round"/><g fill="#33200f" opacity="0.8"><circle cx="385.4" cy="143.9" r="0.6"/><circle cx="378.5" cy="176.8" r="0.7"/><circle cx="365.0" cy="170.2" r="0.7"/><circle cx="364.2" cy="178.4" r="0.6"/><circle cx="359.3" cy="164.6" r="0.6"/><circle cx="364.0" cy="144.4" r="0.6"/><circle cx="384.1" cy="137.6" r="0.8"/><circle cx="370.7" cy="150.0" r="0.8"/><circle cx="399.5" cy="171.2" r="1.0"/><circle cx="388.1" cy="140.4" r="0.8"/><circle cx="365.1" cy="141.8" r="1.0"/><circle cx="363.0" cy="179.1" r="0.7"/><circle cx="381.0" cy="150.9" r="0.5"/><circle cx="390.7" cy="145.2" r="1.0"/><circle cx="392.9" cy="185.2" r="0.6"/><circle cx="398.3" cy="147.1" r="0.8"/><circle cx="382.4" cy="181.6" r="0.9"/><circle cx="371.6" cy="146.5" r="0.7"/><circle cx="395.8" cy="160.8" r="1.1"/><circle cx="356.8" cy="173.2" r="0.9"/><circle cx="395.1" cy="168.8" r="0.6"/><circle cx="404.0" cy="157.9" r="0.9"/><circle cx="388.8" cy="142.5" r="0.8"/><circle cx="379.3" cy="180.4" r="0.6"/><circle cx="391.1" cy="180.8" r="0.6"/><circle cx="404.8" cy="159.3" r="1.0"/><circle cx="370.7" cy="137.4" r="0.7"/><circle cx="407.3" cy="158.9" r="0.6"/><circle cx="378.9" cy="141.1" r="0.7"/><circle cx="400.9" cy="146.8" r="0.6"/><circle cx="368.8" cy="150.3" r="0.8"/><circle cx="375.4" cy="158.8" r="0.8"/><circle cx="358.8" cy="172.2" r="0.7"/><circle cx="374.8" cy="184.4" r="0.9"/><circle cx="383.9" cy="150.5" r="1.0"/><circle cx="396.1" cy="177.0" r="0.8"/><circle cx="380.1" cy="155.7" r="0.8"/><circle cx="386.7" cy="177.0" r="0.7"/><circle cx="384.1" cy="153.9" r="0.9"/><circle cx="385.6" cy="161.9" r="0.7"/><circle cx="399.3" cy="144.0" r="0.7"/><circle cx="362.2" cy="159.7" r="0.8"/><circle cx="357.2" cy="163.3" r="0.6"/><circle cx="372.0" cy="169.3" r="0.9"/><circle cx="366.5" cy="164.6" r="0.6"/><circle cx="389.4" cy="179.0" r="0.8"/><circle cx="382.8" cy="135.5" r="1.0"/><circle cx="370.8" cy="160.2" r="0.8"/><circle cx="389.4" cy="154.6" r="1.0"/><circle cx="396.0" cy="162.6" r="0.7"/><circle cx="404.7" cy="153.5" r="1.0"/><circle cx="383.4" cy="179.5" r="1.1"/><circle cx="388.0" cy="167.0" r="1.0"/><circle cx="374.0" cy="160.0" r="0.6"/><circle cx="394.9" cy="183.0" r="0.6"/><circle cx="388.3" cy="176.3" r="0.9"/><circle cx="402.8" cy="153.6" r="0.9"/><circle cx="404.6" cy="169.0" r="0.8"/><circle cx="400.9" cy="157.9" r="0.9"/><circle cx="367.8" cy="148.1" r="1.0"/></g><path d="M351.0,140.5 q11.4,-13.3 26.6,-11.4" fill="none" stroke="#33200f" stroke-width="0.8" stroke-linecap="round" stroke-linejoin="round" opacity="0.7"/><path d="M344.2,130.0 C344.4,135.3 350.2,142.1 347.8,146.2 C345.5,150.4 335.0,151.2 330.2,154.7 C325.3,158.3 323.9,165.2 318.8,167.3 C313.8,169.3 306.3,167.0 300.0,167.0 C293.7,167.0 286.3,169.1 281.3,167.1 C276.3,165.0 274.6,158.2 269.9,154.7 C265.3,151.1 255.8,149.9 253.4,145.8 C250.9,141.7 255.0,135.2 255.2,130.0 C255.4,124.8 252.4,118.8 254.8,114.6 C257.2,110.5 265.4,109.0 269.7,105.1 C274.0,101.3 275.4,93.4 280.5,91.4 C285.5,89.3 293.6,92.7 300.0,92.9 C306.4,93.0 314.2,90.0 319.2,92.1 C324.2,94.1 325.5,101.7 330.0,105.4 C334.6,109.0 344.3,110.1 346.6,114.2 C349.0,118.3 344.0,124.7 344.2,130.0 Z" fill="#f1e0b8" stroke="#33200f" stroke-width="1.3" stroke-linecap="round" stroke-linejoin="round"/><g fill="#33200f" opacity="0.8"><circle cx="325.6" cy="149.2" r="0.8"/><circle cx="330.7" cy="132.9" r="0.7"/><circle cx="313.4" cy="146.4" r="1.0"/><circle cx="320.1" cy="155.6" r="0.6"/><circle cx="289.4" cy="148.8" r="0.9"/><circle cx="295.4" cy="157.7" r="0.9"/><circle cx="295.0" cy="132.5" r="0.8"/><circle cx="333.1" cy="157.1" r="0.7"/><circle cx="310.4" cy="153.9" r="0.8"/><circle cx="320.4" cy="167.6" r="0.9"/><circle cx="315.0" cy="172.4" r="0.7"/><circle cx="321.1" cy="146.3" r="0.9"/><circle cx="341.7" cy="151.0" r="0.7"/><circle cx="333.6" cy="121.0" r="0.7"/><circle cx="325.9" cy="169.2" r="1.1"/><circle cx="320.9" cy="132.7" r="0.8"/><circle cx="303.7" cy="113.4" r="0.9"/><circle cx="306.4" cy="167.9" r="0.9"/><circle cx="310.1" cy="132.4" r="0.7"/><circle cx="323.2" cy="134.9" r="0.8"/><circle cx="312.8" cy="115.1" r="0.7"/><circle cx="303.0" cy="158.6" r="1.0"/><circle cx="286.9" cy="138.0" r="1.0"/><circle cx="307.0" cy="133.6" r="0.7"/><circle cx="312.8" cy="142.4" r="0.6"/><circle cx="331.7" cy="136.6" r="0.6"/><circle cx="325.9" cy="160.2" r="1.1"/><circle cx="327.7" cy="154.6" r="0.7"/><circle cx="295.8" cy="138.2" r="1.1"/><circle cx="295.4" cy="145.5" r="0.7"/><circle cx="308.8" cy="118.3" r="0.8"/><circle cx="316.1" cy="174.0" r="0.6"/><circle cx="341.9" cy="148.1" r="0.8"/><circle cx="287.9" cy="132.6" r="0.8"/><circle cx="320.1" cy="174.2" r="0.9"/><circle cx="306.1" cy="150.3" r="0.7"/><circle cx="300.1" cy="146.9" r="0.9"/><circle cx="319.3" cy="119.7" r="0.8"/><circle cx="343.4" cy="139.9" r="0.6"/><circle cx="281.3" cy="138.1" r="0.9"/><circle cx="337.6" cy="125.2" r="0.8"/><circle cx="341.9" cy="133.1" r="0.7"/><circle cx="316.9" cy="157.2" r="0.6"/><circle cx="316.7" cy="172.4" r="0.7"/><circle cx="314.1" cy="157.3" r="0.6"/><circle cx="343.1" cy="144.4" r="0.9"/><circle cx="292.5" cy="159.0" r="0.8"/><circle cx="321.0" cy="134.7" r="0.8"/><circle cx="304.9" cy="159.8" r="0.7"/><circle cx="334.8" cy="147.8" r="1.0"/><circle cx="318.3" cy="172.2" r="1.0"/><circle cx="332.7" cy="124.4" r="0.8"/><circle cx="313.5" cy="122.7" r="0.9"/><circle cx="296.9" cy="163.9" r="0.7"/><circle cx="292.6" cy="130.4" r="0.8"/><circle cx="338.3" cy="159.9" r="0.6"/><circle cx="287.5" cy="154.1" r="0.7"/><circle cx="305.3" cy="172.3" r="1.0"/><circle cx="315.4" cy="163.5" r="1.0"/><circle cx="298.2" cy="164.8" r="0.8"/></g><path d="M277.0,118.5 q13.8,-16.1 32.2,-13.8" fill="none" stroke="#33200f" stroke-width="0.8" stroke-linecap="round" stroke-linejoin="round" opacity="0.7"/><path d="M276.0,120.0 C276.3,125.8 284.2,133.1 282.3,137.8 C280.3,142.4 269.4,144.1 264.2,148.1 C259.0,152.1 256.8,160.1 251.1,161.8 C245.4,163.5 237.0,158.4 230.0,158.4 C223.0,158.3 214.6,163.3 209.1,161.3 C203.7,159.4 202.5,150.7 197.4,146.7 C192.4,142.7 180.9,141.9 178.7,137.4 C176.5,133.0 184.0,125.8 184.2,120.0 C184.3,114.2 177.4,107.3 179.6,102.9 C181.9,98.5 192.8,97.7 197.6,93.4 C202.4,89.2 203.1,79.4 208.5,77.5 C213.9,75.5 222.9,81.9 230.0,81.9 C237.1,82.0 245.7,76.0 251.4,77.7 C257.1,79.3 259.4,87.7 264.3,91.9 C269.2,96.1 278.7,98.1 280.7,102.8 C282.6,107.5 275.7,114.2 276.0,120.0 Z" fill="#f1e0b8" stroke="#33200f" stroke-width="1.3" stroke-linecap="round" stroke-linejoin="round"/><g fill="#33200f" opacity="0.8"><circle cx="250.7" cy="123.8" r="0.8"/><circle cx="228.3" cy="121.9" r="1.1"/><circle cx="276.5" cy="142.0" r="0.7"/><circle cx="226.2" cy="147.3" r="0.6"/><circle cx="260.2" cy="162.7" r="1.0"/><circle cx="269.4" cy="116.7" r="0.7"/><circle cx="272.8" cy="141.8" r="1.1"/><circle cx="212.5" cy="138.0" r="0.8"/><circle cx="229.8" cy="124.9" r="0.8"/><circle cx="258.3" cy="116.1" r="0.9"/><circle cx="270.7" cy="149.4" r="0.7"/><circle cx="259.6" cy="108.9" r="0.9"/><circle cx="253.3" cy="168.8" r="0.9"/><circle cx="219.9" cy="122.7" r="0.9"/><circle cx="257.1" cy="123.3" r="1.0"/><circle cx="224.7" cy="154.3" r="0.9"/><circle cx="234.3" cy="144.8" r="0.8"/><circle cx="256.2" cy="129.6" r="0.7"/><circle cx="247.5" cy="166.2" r="1.0"/><circle cx="252.8" cy="108.3" r="0.8"/><circle cx="232.8" cy="101.4" r="0.9"/><circle cx="241.8" cy="154.5" r="0.7"/><circle cx="222.4" cy="116.1" r="0.8"/><circle cx="231.4" cy="168.0" r="0.7"/><circle cx="243.9" cy="149.7" r="0.8"/><circle cx="247.4" cy="108.7" r="0.8"/><circle cx="271.0" cy="154.7" r="0.6"/><circle cx="238.2" cy="128.7" r="0.9"/><circle cx="246.4" cy="166.4" r="0.8"/><circle cx="232.9" cy="164.1" r="0.6"/><circle cx="267.6" cy="140.1" r="0.7"/><circle cx="227.3" cy="164.2" r="1.1"/><circle cx="237.3" cy="128.2" r="0.8"/><circle cx="254.5" cy="126.5" r="1.0"/><circle cx="230.2" cy="153.6" r="0.6"/><circle cx="222.7" cy="109.5" r="0.8"/><circle cx="236.3" cy="159.2" r="0.6"/><circle cx="233.3" cy="136.0" r="0.7"/><circle cx="274.9" cy="118.1" r="0.7"/><circle cx="241.4" cy="143.7" r="0.8"/><circle cx="264.4" cy="162.3" r="0.7"/><circle cx="254.6" cy="114.6" r="0.8"/><circle cx="234.0" cy="168.5" r="0.7"/><circle cx="272.7" cy="122.5" r="1.0"/><circle cx="238.9" cy="125.9" r="0.6"/><circle cx="257.5" cy="163.7" r="0.7"/><circle cx="246.2" cy="156.5" r="0.7"/><circle cx="234.6" cy="111.4" r="1.0"/><circle cx="223.6" cy="150.2" r="0.6"/><circle cx="240.3" cy="115.3" r="0.6"/><circle cx="223.9" cy="143.9" r="0.9"/><circle cx="235.1" cy="119.7" r="0.7"/><circle cx="233.3" cy="131.4" r="0.6"/><circle cx="237.1" cy="137.3" r="0.6"/><circle cx="222.3" cy="117.3" r="0.9"/><circle cx="223.3" cy="161.3" r="0.9"/><circle cx="245.7" cy="112.1" r="0.8"/><circle cx="242.7" cy="135.8" r="1.1"/><circle cx="243.1" cy="120.6" r="0.9"/><circle cx="237.7" cy="134.7" r="1.0"/></g><path d="M205.0,107.5 q15.0,-17.5 35.0,-15.0" fill="none" stroke="#33200f" stroke-width="0.8" stroke-linecap="round" stroke-linejoin="round" opacity="0.7"/><path d="M199.1,150.0 C199.1,154.5 201.5,159.8 199.3,163.3 C197.1,166.9 189.7,168.0 186.0,171.3 C182.2,174.6 181.0,181.4 176.7,183.1 C172.4,184.8 165.7,181.3 160.0,181.5 C154.3,181.7 147.2,185.7 142.8,184.1 C138.3,182.5 137.1,175.3 133.2,172.0 C129.3,168.6 121.5,167.4 119.5,163.8 C117.4,160.1 120.9,154.6 120.7,150.0 C120.6,145.4 116.6,139.7 118.6,135.9 C120.5,132.1 128.1,130.3 132.3,127.3 C136.5,124.3 139.1,119.2 143.8,117.9 C148.4,116.5 154.5,119.4 160.0,119.3 C165.5,119.2 172.0,115.8 176.6,117.2 C181.1,118.6 183.5,124.3 187.3,127.6 C191.2,130.8 197.4,132.9 199.4,136.6 C201.3,140.4 199.1,145.5 199.1,150.0 Z" fill="#f1e0b8" stroke="#33200f" stroke-width="1.3" stroke-linecap="round" stroke-linejoin="round"/><g fill="#33200f" opacity="0.8"><circle cx="147.2" cy="161.6" r="0.8"/><circle cx="163.6" cy="158.7" r="1.0"/><circle cx="170.2" cy="134.1" r="0.8"/><circle cx="179.5" cy="149.2" r="0.8"/><circle cx="145.6" cy="173.0" r="0.6"/><circle cx="153.3" cy="140.7" r="1.1"/><circle cx="165.3" cy="146.2" r="0.8"/><circle cx="150.1" cy="168.8" r="0.6"/><circle cx="176.7" cy="159.0" r="0.6"/><circle cx="186.7" cy="185.3" r="0.6"/><circle cx="155.1" cy="146.7" r="0.7"/><circle cx="189.3" cy="145.2" r="0.5"/><circle cx="171.9" cy="152.8" r="0.7"/><circle cx="190.3" cy="149.4" r="0.9"/><circle cx="165.7" cy="156.7" r="0.7"/><circle cx="182.9" cy="144.1" r="0.8"/><circle cx="187.0" cy="171.4" r="1.0"/><circle cx="155.0" cy="163.6" r="0.7"/><circle cx="148.3" cy="166.1" r="0.7"/><circle cx="153.5" cy="163.4" r="0.6"/><circle cx="179.5" cy="154.6" r="0.6"/><circle cx="174.4" cy="138.7" r="0.8"/><circle cx="166.6" cy="140.4" r="0.8"/><circle cx="170.3" cy="188.9" r="1.0"/><circle cx="197.0" cy="158.0" r="1.0"/><circle cx="165.5" cy="163.3" r="0.7"/><circle cx="147.7" cy="176.5" r="0.9"/><circle cx="172.1" cy="163.2" r="0.6"/><circle cx="157.0" cy="158.3" r="0.7"/><circle cx="153.0" cy="168.2" r="0.6"/><circle cx="148.4" cy="145.7" r="1.0"/><circle cx="164.8" cy="139.9" r="0.6"/><circle cx="151.5" cy="164.5" r="1.1"/><circle cx="174.8" cy="168.9" r="0.7"/><circle cx="159.2" cy="162.5" r="0.5"/><circle cx="164.0" cy="157.7" r="0.9"/><circle cx="150.3" cy="165.2" r="0.9"/><circle cx="151.7" cy="155.2" r="0.6"/><circle cx="174.8" cy="178.3" r="0.9"/><circle cx="199.3" cy="169.6" r="0.6"/><circle cx="199.2" cy="159.7" r="0.9"/><circle cx="156.2" cy="159.0" r="1.0"/><circle cx="163.6" cy="176.6" r="0.6"/><circle cx="161.0" cy="160.4" r="0.7"/><circle cx="163.3" cy="157.1" r="0.9"/><circle cx="174.6" cy="134.5" r="0.9"/><circle cx="184.2" cy="139.0" r="0.9"/><circle cx="192.7" cy="159.6" r="0.8"/><circle cx="181.7" cy="170.8" r="0.7"/><circle cx="148.9" cy="168.4" r="0.6"/><circle cx="189.7" cy="140.4" r="0.8"/><circle cx="162.1" cy="140.0" r="0.7"/><circle cx="186.0" cy="167.0" r="1.0"/><circle cx="167.5" cy="178.9" r="0.6"/><circle cx="178.1" cy="149.5" r="0.9"/><circle cx="178.5" cy="183.0" r="0.6"/><circle cx="148.2" cy="150.9" r="0.8"/><circle cx="189.2" cy="183.7" r="1.0"/><circle cx="168.2" cy="189.5" r="0.8"/><circle cx="183.2" cy="146.8" r="0.6"/></g><path d="M140.0,140.0 q12.0,-14.0 28.0,-12.0" fill="none" stroke="#33200f" stroke-width="0.8" stroke-linecap="round" stroke-linejoin="round" opacity="0.7"/><path d="M285.5,160.0 C285.4,164.1 288.0,168.9 286.3,172.3 C284.5,175.7 278.3,177.3 274.9,180.4 C271.4,183.5 269.7,189.6 265.5,190.7 C261.4,191.9 255.1,187.3 250.0,187.2 C244.9,187.1 238.7,191.5 234.7,190.2 C230.7,188.9 229.5,182.7 226.0,179.7 C222.6,176.7 215.5,175.5 214.1,172.2 C212.6,168.9 217.2,164.1 217.2,160.0 C217.2,155.9 212.3,151.0 213.9,147.7 C215.4,144.5 223.0,143.7 226.4,140.6 C229.8,137.5 230.4,130.7 234.4,129.1 C238.3,127.5 244.9,130.9 250.0,131.1 C255.1,131.3 261.0,128.8 265.0,130.3 C269.0,131.8 270.5,137.4 274.1,140.3 C277.7,143.1 284.6,144.3 286.4,147.6 C288.3,150.9 285.5,155.9 285.5,160.0 Z" fill="#f1e0b8" stroke="#33200f" stroke-width="1.3" stroke-linecap="round" stroke-linejoin="round"/><g fill="#33200f" opacity="0.8"><circle cx="273.8" cy="150.6" r="1.1"/><circle cx="239.9" cy="164.4" r="0.9"/><circle cx="257.4" cy="148.8" r="0.7"/><circle cx="240.1" cy="161.8" r="0.8"/><circle cx="243.9" cy="174.7" r="0.9"/><circle cx="266.3" cy="146.5" r="0.6"/><circle cx="240.2" cy="171.2" r="0.7"/><circle cx="249.8" cy="165.2" r="0.8"/><circle cx="250.7" cy="158.4" r="0.7"/><circle cx="253.2" cy="192.2" r="0.7"/><circle cx="264.9" cy="156.4" r="1.1"/><circle cx="253.1" cy="148.8" r="0.6"/><circle cx="260.4" cy="187.5" r="1.0"/><circle cx="279.2" cy="153.3" r="0.9"/><circle cx="253.3" cy="173.5" r="1.0"/><circle cx="246.2" cy="162.8" r="0.7"/><circle cx="255.4" cy="148.5" r="1.0"/><circle cx="250.5" cy="191.7" r="0.8"/><circle cx="278.5" cy="185.9" r="0.7"/><circle cx="246.2" cy="154.4" r="0.7"/><circle cx="261.8" cy="192.4" r="0.8"/><circle cx="245.9" cy="179.5" r="0.8"/><circle cx="257.8" cy="195.4" r="1.1"/><circle cx="248.0" cy="187.9" r="0.8"/><circle cx="268.3" cy="146.8" r="0.6"/><circle cx="251.5" cy="184.2" r="0.6"/><circle cx="255.2" cy="192.8" r="0.8"/><circle cx="281.7" cy="170.9" r="0.6"/><circle cx="257.0" cy="167.9" r="1.0"/><circle cx="271.1" cy="182.5" r="0.8"/><circle cx="269.0" cy="183.8" r="0.9"/><circle cx="252.3" cy="152.1" r="1.1"/><circle cx="258.7" cy="164.9" r="1.0"/><circle cx="285.4" cy="169.9" r="0.6"/><circle cx="273.7" cy="179.7" r="0.7"/><circle cx="261.8" cy="164.6" r="0.8"/><circle cx="278.2" cy="183.4" r="0.6"/><circle cx="263.0" cy="149.5" r="1.0"/><circle cx="246.5" cy="159.7" r="1.0"/><circle cx="251.2" cy="158.0" r="0.6"/><circle cx="283.4" cy="171.4" r="0.6"/><circle cx="269.1" cy="182.8" r="0.9"/><circle cx="235.8" cy="174.0" r="0.6"/><circle cx="242.4" cy="169.2" r="0.7"/><circle cx="236.5" cy="174.8" r="0.6"/><circle cx="255.3" cy="159.3" r="1.0"/><circle cx="248.4" cy="184.8" r="1.1"/><circle cx="240.8" cy="165.1" r="0.7"/><circle cx="254.4" cy="172.4" r="1.0"/><circle cx="274.0" cy="170.3" r="1.0"/><circle cx="283.7" cy="176.4" r="1.0"/><circle cx="256.9" cy="166.1" r="0.9"/><circle cx="263.9" cy="187.4" r="0.6"/><circle cx="255.4" cy="185.1" r="0.6"/><circle cx="256.6" cy="168.4" r="0.8"/><circle cx="272.6" cy="192.8" r="0.9"/><circle cx="272.7" cy="150.2" r="1.0"/><circle cx="250.7" cy="175.2" r="0.7"/><circle cx="272.9" cy="159.1" r="0.9"/><circle cx="245.2" cy="188.6" r="0.8"/></g><path d="M232.0,151.0 q10.8,-12.6 25.2,-10.8" fill="none" stroke="#33200f" stroke-width="0.8" stroke-linecap="round" stroke-linejoin="round" opacity="0.7"/><path d="M150,400 q-30,4 -52,14" fill="none" stroke="#33200f" stroke-width="2.2" stroke-linecap="round" stroke-linejoin="round"/><path d="M306,400 q30,4 56,16" fill="none" stroke="#33200f" stroke-width="2.2" stroke-linecap="round" stroke-linejoin="round"/><path d="M200,400 q-6,10 -20,18" fill="none" stroke="#33200f" stroke-width="2.2" stroke-linecap="round" stroke-linejoin="round"/><path d="M270,400 q10,10 26,16" fill="none" stroke="#33200f" stroke-width="2.2" stroke-linecap="round" stroke-linejoin="round"/><path d="M600,120 q14,-12 26,0 q12,-12 26,0" fill="none" stroke="#33200f" stroke-width="1.6" stroke-linecap="round" stroke-linejoin="round"/><path d="M14,14 H806 V466 H14 Z" fill="none" stroke="#33200f" stroke-width="2.2" stroke-linecap="round" stroke-linejoin="round"/><path d="M20,20 H800 V460 H20 Z" fill="none" stroke="#33200f" stroke-width="0.9" stroke-linecap="round" stroke-linejoin="round"/><path d="M20,36 q14,-2 16,-16 q2,14 16,0" fill="none" stroke="#33200f" stroke-width="1.1" stroke-linecap="round" stroke-linejoin="round"/><circle cx="20" cy="20" r="3.2" fill="#33200f"/><path d="M800,36 q-14,-2 -16,-16 q-2,14 -16,0" fill="none" stroke="#33200f" stroke-width="1.1" stroke-linecap="round" stroke-linejoin="round"/><circle cx="800" cy="20" r="3.2" fill="#33200f"/><path d="M20,444 q14,2 16,16 q2,-14 16,0" fill="none" stroke="#33200f" stroke-width="1.1" stroke-linecap="round" stroke-linejoin="round"/><circle cx="20" cy="460" r="3.2" fill="#33200f"/><path d="M800,444 q-14,2 -16,16 q-2,-14 -16,0" fill="none" stroke="#33200f" stroke-width="1.1" stroke-linecap="round" stroke-linejoin="round"/><circle cx="800" cy="460" r="3.2" fill="#33200f"/></g>
<path d="M214,312 C196,286 196,262 206,248 C212,268 216,290 220,314 Z" fill="#33200f" stroke="#f1e0b8" stroke-width="1"/>
</svg>
